{"glyphs":{"0":{"ha":928,"x_min":54,"x_max":743,"o":"m 743 79 l 669 0 l 149 0 q 90 40 110 22 q 54 85 69 58 l 54 982 q 72 1040 54 1011 q 114 1082 89 1068 l 654 1082 q 743 1014 699 1061 l 743 79 m 608 136 l 608 939 l 188 939 l 188 136 l 608 136 z "},"1":{"ha":803,"x_min":36,"x_max":774,"o":"m 774 0 l 103 0 q 56 65 56 22 q 63 103 56 86 q 89 144 71 121 l 328 144 l 328 968 l 60 968 q 36 1021 36 990 q 55 1073 36 1050 q 106 1101 74 1096 l 442 1101 q 464 1095 453 1101 q 483 1079 475 1089 l 483 149 l 635 149 l 635 469 q 663 495 646 486 q 719 504 681 504 l 735 504 l 774 461 l 774 0 z "},"2":{"ha":811,"x_min":61,"x_max":785,"o":"m 782 68 q 781 49 783 60 q 776 25 779 39 q 751 8 764 17 q 732 -1 738 0 q 670 -3 726 -3 q 571 -4 614 -3 q 294 -3 401 -4 q 76 0 186 -3 l 76 518 q 119 600 89 567 q 231 635 168 625 l 632 635 l 632 965 l 97 965 l 68 996 q 63 1018 64 1006 q 61 1032 61 1031 q 86 1086 61 1065 q 151 1107 111 1107 l 669 1107 q 739 1058 714 1085 q 776 990 764 1032 l 776 603 q 711 519 758 549 q 606 489 664 489 l 225 489 l 225 146 l 749 146 q 785 85 785 119 q 782 68 785 79 z "},"3":{"ha":797,"x_min":15,"x_max":749,"o":"m 749 106 q 692 35 726 64 q 613 0 657 6 l 79 0 l 49 19 q 40 57 40 39 q 53 99 40 79 q 88 133 65 118 q 131 139 113 139 l 603 139 l 603 426 l 549 481 l 199 481 q 184 517 189 497 q 176 561 179 538 q 233 615 190 607 l 543 615 l 586 665 l 586 957 l 65 957 q 29 971 47 957 q 15 1017 15 989 q 34 1074 15 1049 q 85 1099 53 1099 l 615 1099 q 683 1056 653 1082 q 738 993 714 1029 l 738 719 l 678 567 q 717 503 696 540 q 749 447 738 467 l 749 106 z "},"4":{"ha":779,"x_min":36,"x_max":669,"o":"m 667 458 q 669 426 669 436 q 660 369 669 397 l 624 347 l 597 347 l 597 29 q 585 14 592 21 q 572 3 578 7 q 554 -1 564 0 q 536 -3 544 -3 q 461 32 496 -3 l 461 347 l 38 347 l 38 1025 q 36 1049 36 1042 q 38 1064 36 1058 q 82 1076 57 1076 l 128 1071 q 157 1042 150 1060 l 157 483 l 461 483 l 461 919 q 489 957 469 940 q 521 963 508 963 l 556 963 q 579 945 571 954 q 592 919 588 936 l 592 483 l 638 483 l 667 458 z "},"5":{"ha":819,"x_min":68,"x_max":779,"o":"m 779 108 q 729 19 767 58 q 694 0 710 15 l 151 0 q 118 13 138 4 q 88 32 99 22 q 68 106 68 64 q 71 131 68 114 q 108 160 83 147 l 646 160 l 646 472 l 203 472 l 203 1042 q 265 1082 226 1072 l 735 1082 q 764 1021 764 1058 q 711 950 764 967 l 342 950 l 342 608 l 692 608 q 746 583 721 604 q 779 504 771 546 l 779 108 z "},"6":{"ha":819,"x_min":57,"x_max":771,"o":"m 771 447 l 768 28 l 738 0 l 97 0 l 57 38 l 57 1033 q 124 1086 72 1086 q 136 1085 132 1085 l 136 1093 q 185 1084 174 1086 q 225 1079 197 1082 q 242 1067 236 1075 q 258 1039 249 1058 q 242 968 258 1001 q 208 957 231 968 q 196 931 196 942 l 196 493 l 694 493 q 715 489 701 493 q 740 481 728 485 l 771 447 m 632 144 l 632 333 l 613 347 l 586 353 l 261 353 l 231 347 l 208 328 l 208 146 q 243 121 219 121 q 256 122 251 121 l 610 122 q 632 144 624 131 z "},"7":{"ha":822,"x_min":60,"x_max":779,"o":"m 779 621 l 493 382 l 493 25 q 429 -8 465 -8 q 393 1 411 -8 q 358 28 375 11 l 358 442 l 638 683 l 638 942 l 214 942 l 160 890 q 133 886 144 886 q 79 917 99 886 q 60 992 60 949 q 61 1007 60 999 q 63 1019 63 1015 q 81 1053 72 1039 q 106 1079 90 1067 l 779 1079 l 779 621 z "},"8":{"ha":814,"x_min":54,"x_max":760,"o":"m 760 88 q 711 25 742 51 l 649 0 l 196 0 q 106 32 144 0 q 54 114 67 64 l 54 501 q 74 562 54 535 q 125 610 93 589 l 188 610 l 188 1039 q 199 1074 188 1054 q 228 1093 211 1089 l 569 1093 q 601 1061 589 1083 q 613 1014 613 1039 l 613 606 l 694 606 q 735 559 717 586 q 760 501 754 532 l 760 88 m 472 621 l 472 942 l 456 953 l 342 953 l 325 936 l 325 621 l 472 621 m 613 149 l 613 478 l 550 492 l 228 492 q 196 481 207 494 l 193 475 l 193 157 l 214 133 l 608 133 l 613 149 z "},"9":{"ha":828,"x_min":38,"x_max":754,"o":"m 754 46 q 714 6 743 19 q 653 -8 685 -8 q 558 28 590 -8 q 550 64 550 47 q 567 119 550 86 l 606 142 l 606 594 l 92 594 q 61 602 76 594 q 38 624 46 610 l 38 1031 q 47 1071 38 1054 q 74 1096 57 1088 l 681 1096 q 708 1069 685 1096 q 754 1014 731 1043 l 754 46 m 606 743 l 606 942 q 578 956 585 956 l 225 956 q 194 950 207 958 q 176 928 181 942 l 176 729 q 190 719 178 725 l 583 719 q 606 743 596 724 z "}," ":{"ha":797,"x_min":0,"x_max":0,"o":""},"!":{"ha":467,"x_min":64,"x_max":274,"o":"m 268 1047 l 225 472 q 194 435 208 450 q 164 429 179 421 q 142 422 147 422 q 120 436 128 422 q 106 478 113 450 l 65 1044 q 97 1085 64 1067 q 163 1110 129 1104 q 242 1095 213 1110 q 268 1047 271 1081 m 274 49 q 225 0 257 15 l 133 0 q 76 40 97 0 l 76 151 q 97 180 82 169 q 136 199 113 190 l 214 199 q 274 144 253 183 l 274 49 z "},"\"":{"ha":925,"x_min":57,"x_max":775,"o":"m 774 957 l 694 594 q 655 558 681 572 q 601 543 629 543 q 579 547 590 543 q 547 656 572 553 q 499 863 522 758 l 318 863 l 233 553 q 194 544 213 544 q 133 594 150 544 l 57 1004 q 69 1033 57 1019 q 100 1050 82 1046 l 738 1050 q 775 971 775 1017 q 774 957 775 961 z "},"#":{"ha":933,"x_min":67,"x_max":785,"o":"m 740 279 l 629 279 l 629 65 q 571 33 613 33 q 529 44 549 33 q 504 76 510 56 l 504 279 l 342 279 l 342 74 q 312 40 331 51 q 271 29 293 29 q 214 74 222 29 l 214 279 l 128 279 q 91 305 104 283 q 78 351 78 326 q 89 395 78 376 q 119 415 100 414 l 214 415 l 214 586 l 114 586 q 78 612 90 593 q 67 654 67 631 q 80 699 67 679 q 114 724 93 719 l 214 724 l 214 911 q 239 947 222 932 q 274 963 256 963 q 321 947 300 958 q 342 917 342 936 l 342 724 l 504 724 l 504 928 q 531 955 515 944 q 564 965 547 965 q 626 922 607 961 l 626 724 l 722 724 q 763 695 753 719 q 774 654 774 671 q 758 600 774 622 q 714 581 742 578 l 629 581 l 629 415 l 731 415 q 785 349 785 404 q 774 309 785 326 q 740 279 764 292 m 504 418 l 504 586 l 344 586 l 344 418 l 504 418 z "},"$":{"ha":950,"x_min":56,"x_max":771,"o":"m 768 307 q 732 279 754 288 l 472 279 l 472 53 q 406 33 444 33 q 370 39 386 33 q 340 58 354 44 q 338 126 339 63 q 336 249 336 190 q 336 271 336 267 q 336 282 336 275 l 106 282 q 56 349 56 301 q 92 410 56 388 q 117 415 108 415 l 635 415 l 635 529 l 119 529 q 76 550 97 533 l 71 569 l 71 871 q 128 897 93 897 l 379 897 l 379 1101 q 405 1128 385 1118 q 449 1139 425 1139 q 493 1107 493 1139 q 495 1068 494 1092 q 496 1021 496 1044 q 495 950 496 982 q 493 893 494 918 l 735 893 q 768 825 768 868 q 735 765 768 782 l 219 765 q 199 732 204 750 l 199 683 q 210 659 203 671 q 219 643 217 647 l 732 643 q 760 611 749 632 q 768 569 771 590 l 768 307 z "},"%":{"ha":819,"x_min":57,"x_max":779,"o":"m 353 885 q 318 860 340 865 l 119 860 q 88 883 100 872 q 76 911 76 893 l 76 1067 q 142 1115 86 1115 l 296 1115 q 322 1100 308 1107 q 353 1058 346 1083 l 353 885 m 779 919 l 160 136 q 128 129 142 129 q 82 144 104 129 q 65 174 72 160 q 57 203 58 189 l 643 947 q 710 989 669 989 q 722 988 718 988 q 763 963 746 981 q 779 919 779 944 m 754 32 q 714 0 742 8 l 504 0 l 489 32 l 489 217 q 546 256 511 256 l 711 256 q 738 238 726 251 q 754 208 750 225 l 754 32 z "},"&":{"ha":996,"x_min":65,"x_max":782,"o":"m 779 106 q 782 85 782 92 q 759 28 782 53 q 706 4 736 4 q 681 8 693 4 l 589 100 q 440 9 481 31 q 338 -12 400 -12 q 238 9 303 -12 q 124 81 174 31 q 65 214 74 131 q 82 358 65 285 l 219 481 l 68 686 q 82 858 68 797 q 143 948 96 918 q 231 988 190 978 l 496 988 q 585 916 550 961 q 629 814 621 871 l 629 665 l 442 481 l 589 307 l 663 376 q 708 396 685 396 q 749 377 731 392 q 779 342 768 363 q 771 285 779 314 l 692 201 l 779 106 m 489 706 l 489 831 q 407 863 451 854 l 279 863 q 211 819 240 849 l 211 692 l 347 561 l 489 706 m 483 208 l 325 382 q 280 351 303 368 q 208 299 257 335 l 208 193 q 259 147 228 161 q 329 132 290 132 q 388 139 356 132 l 483 208 z "},"'":{"ha":626,"x_min":165,"x_max":442,"o":"m 442 993 l 342 574 q 286 540 315 540 q 249 574 261 540 l 165 1004 q 178 1032 165 1019 q 208 1050 190 1044 l 404 1050 q 442 993 433 1025 z "},"(":{"ha":529,"x_min":131,"x_max":392,"o":"m 390 1017 l 258 732 l 258 364 l 388 74 q 385 38 390 61 q 371 13 378 24 q 353 -8 364 3 q 335 -10 347 -10 q 265 8 294 -10 l 263 28 l 131 328 l 131 765 l 265 1069 q 288 1092 275 1082 q 318 1113 301 1103 q 353 1104 336 1113 l 388 1071 q 392 1031 392 1054 q 390 1017 392 1021 z "},")":{"ha":564,"x_min":68,"x_max":421,"o":"m 421 333 q 307 174 374 263 q 174 3 240 86 q 138 -4 158 -4 q 88 15 108 -4 q 68 65 68 33 q 71 84 68 71 q 80 109 74 97 q 89 128 86 121 l 288 385 l 288 735 l 89 1007 q 82 1038 82 1025 q 97 1088 82 1060 q 131 1107 113 1103 q 168 1104 146 1110 q 194 1088 192 1090 q 206 1074 197 1086 l 421 754 l 421 333 z "},"*":{"ha":833,"x_min":39,"x_max":765,"o":"m 765 717 q 756 683 761 697 q 738 640 750 669 l 504 461 l 751 242 q 754 221 754 228 q 735 166 754 189 q 683 136 715 143 q 663 139 671 136 q 640 149 654 142 l 453 322 l 453 54 l 421 29 q 388 28 399 28 q 363 35 376 28 q 331 68 349 42 l 331 322 l 119 160 q 88 154 108 154 q 39 222 39 182 q 46 256 39 240 l 299 458 l 63 672 q 61 696 61 681 q 63 721 61 708 q 65 746 64 733 q 81 763 71 754 q 100 779 90 772 q 151 782 129 783 l 356 603 l 356 840 q 375 875 363 861 q 407 893 388 889 q 447 880 429 896 q 472 840 465 864 l 472 586 l 689 768 q 724 771 713 774 q 746 744 733 761 q 765 717 758 726 z "},"+":{"ha":914,"x_min":58,"x_max":782,"o":"m 779 396 q 774 351 782 372 q 746 318 765 329 q 654 315 739 317 q 483 313 569 314 l 483 83 q 460 48 483 63 q 408 33 438 33 q 365 45 383 33 q 344 82 347 57 l 344 322 l 122 322 q 76 347 93 325 q 58 394 58 368 q 117 461 58 453 l 361 461 l 361 683 q 390 722 372 708 q 432 735 407 735 q 465 723 451 735 q 489 689 478 711 l 489 450 l 724 454 q 756 424 739 446 q 779 396 774 403 z "},",":{"ha":686,"x_min":63,"x_max":499,"o":"m 499 -253 q 494 -270 499 -262 q 481 -290 490 -278 q 432 -300 454 -300 q 390 -290 408 -300 q 364 -256 372 -279 l 364 -244 l 364 54 l 100 54 q 63 125 63 78 q 76 179 63 151 q 98 188 92 186 q 117 193 104 190 l 435 193 q 470 182 456 193 q 499 151 485 171 l 499 -253 z "},"-":{"ha":819,"x_min":68,"x_max":682,"o":"m 638 458 q 671 437 660 457 q 682 390 682 417 q 669 341 682 363 q 632 319 656 319 l 122 319 q 82 341 96 322 q 68 385 68 360 q 76 423 68 404 q 92 450 83 442 q 181 458 100 458 q 322 460 261 458 q 501 460 428 460 q 638 458 575 460 z "},".":{"ha":543,"x_min":163,"x_max":388,"o":"m 388 49 q 372 24 383 35 q 342 0 361 13 l 219 0 q 187 11 203 0 q 163 40 171 22 l 163 219 q 186 249 171 239 q 225 265 201 258 l 328 265 q 388 211 367 251 l 388 49 z "},"/":{"ha":828,"x_min":63,"x_max":831,"o":"m 831 1001 q 497 499 672 758 q 157 6 322 239 q 117 -3 138 -3 q 77 26 92 3 q 63 76 63 49 q 65 103 63 94 l 700 1050 q 719 1066 710 1060 q 741 1074 728 1072 q 763 1076 754 1076 q 812 1055 793 1076 q 831 1001 831 1033 z "},":":{"ha":635,"x_min":63,"x_max":331,"o":"m 331 579 q 308 551 318 563 q 282 540 297 539 l 92 540 q 76 561 88 546 q 63 583 65 576 l 63 754 q 76 783 67 769 q 97 800 85 796 l 296 800 q 331 768 318 794 l 331 579 m 331 94 q 315 72 326 79 q 279 51 303 64 l 106 51 q 78 71 86 64 q 63 94 69 78 l 63 250 q 119 313 76 297 l 290 313 q 331 276 315 296 l 331 94 z "},";":{"ha":669,"x_min":76,"x_max":481,"o":"m 361 450 q 296 390 343 399 l 139 390 q 85 429 97 400 l 85 589 q 100 622 88 608 q 133 646 113 636 l 315 646 q 344 621 332 638 q 361 586 357 604 l 361 450 m 481 -301 q 421 -326 451 -326 q 407 -325 413 -326 q 369 -314 386 -326 q 339 -279 351 -301 l 339 28 l 131 28 q 90 47 104 28 q 76 92 76 65 q 100 151 76 131 l 122 163 l 418 163 q 442 164 433 164 q 457 161 451 164 q 469 151 463 158 q 481 136 476 144 l 481 -301 z "},"<":{"ha":833,"x_min":76,"x_max":790,"o":"m 779 174 q 790 113 790 143 q 776 49 790 76 q 757 47 771 47 q 700 57 725 47 l 106 344 q 76 429 76 382 q 94 504 76 467 l 651 903 q 676 910 660 906 q 700 914 692 914 q 737 901 724 910 q 756 883 750 892 q 768 857 761 875 q 767 826 768 836 q 757 797 765 815 l 282 472 l 256 444 l 276 413 l 779 174 z "},"=":{"ha":794,"x_min":89,"x_max":772,"o":"m 728 743 q 761 722 750 742 q 772 675 772 701 q 759 626 772 647 q 722 604 746 604 l 143 604 q 103 626 117 607 q 89 669 89 644 q 97 708 89 689 q 113 735 104 726 q 212 743 121 743 q 371 744 303 743 q 574 744 492 744 q 728 743 657 744 m 728 451 q 761 430 750 450 q 772 383 772 410 q 759 334 772 356 q 722 313 746 313 l 143 313 q 103 334 117 315 q 89 378 89 353 q 97 416 89 397 q 113 443 104 435 q 212 451 121 451 q 371 453 303 451 q 574 453 492 453 q 728 451 657 453 z "},">":{"ha":833,"x_min":88,"x_max":813,"o":"m 804 494 q 813 449 813 467 q 808 417 813 433 q 800 388 803 400 l 757 347 l 754 350 l 193 17 q 179 13 186 14 q 165 11 172 11 q 132 19 153 11 q 100 32 111 28 q 92 57 96 42 q 88 82 88 72 q 111 136 88 111 q 389 289 244 208 q 635 444 533 369 l 606 483 l 108 765 q 92 810 92 786 q 125 876 92 850 l 160 888 q 185 882 176 885 q 222 868 194 879 l 786 529 l 804 494 z "},"?":{"ha":803,"x_min":39,"x_max":760,"o":"m 760 933 l 738 754 l 301 401 l 301 276 q 246 249 278 249 q 182 290 207 249 l 182 469 l 613 822 l 624 868 l 572 925 l 499 925 l 136 618 q 94 610 115 610 q 53 637 68 615 q 39 686 39 658 q 43 714 39 701 l 515 1104 q 553 1113 536 1113 l 581 1101 l 760 933 m 313 76 q 290 22 313 44 q 236 0 268 0 q 182 22 204 0 q 160 76 160 44 q 182 131 160 108 q 236 153 204 153 q 290 131 268 153 q 313 76 313 108 z "},"@":{"ha":811,"x_min":78,"x_max":789,"o":"m 789 208 q 754 89 781 151 q 716 52 740 74 q 672 17 692 31 q 599 3 639 3 q 489 38 540 3 l 456 57 q 374 14 415 35 q 290 -7 333 -7 q 238 7 278 -7 q 148 74 197 21 q 88 201 99 128 l 88 489 q 131 622 88 565 q 250 692 175 679 l 450 692 q 484 676 474 683 q 510 654 494 669 l 510 222 q 522 197 517 207 q 538 174 526 186 q 563 156 550 161 q 586 150 575 150 q 616 156 603 150 q 646 176 629 163 l 646 914 q 546 985 606 967 l 263 985 l 182 900 q 133 857 165 869 l 92 879 q 79 900 86 894 q 78 922 78 907 q 82 958 78 943 q 94 993 86 974 l 196 1090 l 222 1099 l 651 1099 l 743 1013 l 789 893 l 789 208 m 375 201 l 375 553 q 313 569 347 565 l 263 556 q 228 532 243 547 l 225 496 l 225 188 q 239 165 229 175 l 261 149 q 294 143 276 143 q 375 201 351 143 z "},"A":{"ha":800,"x_min":36,"x_max":761,"o":"m 760 63 q 760 39 761 53 q 754 14 758 25 q 718 -12 735 -3 q 685 -22 701 -22 q 653 -10 669 -22 q 624 29 638 1 l 543 233 l 242 233 l 154 14 q 82 -18 118 -18 q 36 40 36 -18 q 46 100 36 67 l 344 1093 q 401 1107 372 1107 q 458 1093 432 1107 l 760 63 m 518 379 l 407 760 l 396 760 l 276 379 l 518 379 z "},"B":{"ha":811,"x_min":106,"x_max":821,"o":"m 821 819 q 790 660 821 731 q 692 561 760 589 q 789 460 757 526 q 821 313 821 393 q 776 89 821 178 q 603 0 732 0 l 106 0 l 106 1118 l 561 1121 q 735 1024 649 1121 q 821 819 821 926 m 526 969 l 244 974 l 244 615 l 521 615 q 639 676 596 615 q 682 813 682 736 q 638 922 682 874 q 526 969 594 969 m 674 313 q 642 433 674 386 q 546 481 611 481 l 242 481 l 242 125 l 550 125 q 644 179 614 125 q 674 313 674 233 z "},"C":{"ha":814,"x_min":19,"x_max":760,"o":"m 708 131 q 747 106 733 124 q 760 68 760 89 q 706 0 760 15 l 361 0 q 292 24 322 0 q 242 85 261 47 l 49 461 q 19 567 19 518 q 42 656 19 604 l 211 1017 q 256 1096 235 1069 q 318 1122 278 1122 l 697 1124 q 727 1104 717 1124 q 738 1056 738 1085 q 724 1003 738 1025 q 689 988 711 982 l 347 988 q 226 726 279 842 q 174 594 174 610 q 165 561 165 578 q 174 532 165 549 l 379 131 l 708 131 z "},"D":{"ha":817,"x_min":88,"x_max":836,"o":"m 813 458 l 613 94 q 576 43 596 63 q 534 15 557 24 q 488 3 511 6 q 444 -1 464 1 q 388 -4 425 -3 q 314 -6 350 -6 q 217 -4 258 -6 q 144 0 175 -3 q 112 21 124 0 q 100 69 100 42 q 109 111 100 94 q 136 128 118 128 l 242 128 l 242 988 l 125 988 q 97 1001 107 988 q 88 1036 88 1015 q 103 1090 88 1065 q 139 1115 118 1115 l 515 1115 q 542 1109 532 1115 q 574 1085 551 1103 q 608 1047 597 1068 l 806 654 q 836 544 836 596 q 831 502 836 525 q 813 458 825 479 m 686 572 l 663 647 q 581 819 632 733 q 481 976 529 906 q 408 990 439 990 q 385 988 401 990 l 385 128 q 414 126 394 126 q 492 146 458 126 q 588 315 538 222 q 667 501 639 408 l 686 572 z "},"E":{"ha":840,"x_min":82,"x_max":782,"o":"m 710 982 l 222 982 l 222 632 l 429 632 q 478 608 460 629 q 497 560 497 586 q 484 519 497 538 q 444 496 471 501 l 222 496 l 222 144 l 719 144 q 765 115 747 139 q 782 63 782 90 q 769 20 782 38 q 729 0 756 3 l 82 0 l 82 1131 l 692 1131 q 742 1104 724 1131 q 761 1042 761 1078 q 749 999 761 1015 q 710 982 736 982 z "},"F":{"ha":825,"x_min":108,"x_max":803,"o":"m 740 968 l 242 968 l 242 738 l 638 738 q 672 719 660 738 q 683 675 683 700 q 670 626 683 647 q 632 606 657 606 l 242 606 l 242 46 q 222 -8 242 11 q 175 -28 203 -28 q 128 -10 147 -28 q 108 39 108 8 l 108 1107 l 747 1107 q 786 1083 769 1107 q 803 1028 803 1058 q 788 985 803 1001 q 740 968 772 968 z "},"G":{"ha":817,"x_min":46,"x_max":749,"o":"m 749 211 q 702 87 749 139 q 578 0 656 35 l 206 0 q 110 53 156 8 q 49 149 64 97 l 46 190 l 46 726 q 336 1093 186 931 q 367 1103 354 1097 q 404 1121 379 1108 q 534 1121 443 1121 q 685 1121 625 1121 q 712 1102 701 1121 q 722 1056 722 1083 q 697 997 722 1011 q 649 988 671 983 q 589 992 622 990 q 550 993 556 993 q 516 993 531 993 q 475 988 501 993 l 418 974 q 188 692 299 843 l 188 190 l 231 139 l 558 139 q 615 190 596 149 l 615 336 l 592 372 l 453 372 q 417 395 429 376 q 404 438 404 414 q 436 501 404 481 l 749 501 l 749 211 z "},"H":{"ha":814,"x_min":63,"x_max":765,"o":"m 765 29 q 700 -8 742 -8 q 626 35 654 -8 l 626 481 l 185 481 l 185 32 q 122 -3 157 -3 q 63 35 88 -3 l 63 1072 q 81 1109 63 1096 q 126 1122 100 1122 q 169 1110 151 1122 q 188 1076 188 1099 l 188 626 l 626 626 l 626 1058 q 646 1103 626 1086 q 693 1119 665 1119 q 744 1101 724 1119 q 765 1047 765 1083 l 765 29 z "},"I":{"ha":865,"x_min":65,"x_max":779,"o":"m 735 999 l 501 999 l 501 146 l 749 146 q 771 115 763 135 q 779 78 779 96 q 764 26 779 49 q 719 0 749 4 l 89 0 q 65 83 65 40 q 78 129 65 113 q 117 146 90 146 l 347 146 l 347 999 l 133 999 q 88 1022 103 1001 q 74 1071 74 1043 q 85 1115 74 1097 q 119 1133 97 1133 l 722 1133 q 772 1067 772 1122 q 735 999 772 1024 z "},"J":{"ha":740,"x_min":63,"x_max":621,"o":"m 564 1136 q 606 1121 590 1133 q 621 1088 621 1108 l 621 163 q 509 34 588 79 q 336 -11 431 -11 q 178 28 250 -11 q 71 142 107 67 l 63 196 l 63 496 q 124 524 89 524 q 196 492 161 524 l 196 199 q 217 157 200 178 q 343 118 272 118 q 432 140 394 118 q 489 211 469 163 l 489 1090 q 512 1124 489 1111 q 564 1136 535 1136 z "},"K":{"ha":817,"x_min":71,"x_max":806,"o":"m 697 -6 l 208 393 l 203 388 l 203 38 q 178 -7 194 8 q 143 -22 163 -22 q 71 29 101 -22 l 71 1085 q 138 1121 94 1121 q 181 1105 164 1121 q 199 1056 199 1089 l 199 692 l 640 1101 q 660 1114 649 1108 q 681 1122 672 1119 q 700 1125 690 1125 q 744 1106 722 1125 q 765 1046 765 1086 q 763 1025 765 1039 l 247 549 l 740 142 q 790 88 774 114 q 806 43 806 63 q 785 3 806 18 q 733 -11 765 -11 q 697 -6 714 -11 z "},"L":{"ha":808,"x_min":54,"x_max":769,"o":"m 703 0 l 54 0 l 54 1099 q 72 1125 54 1117 q 114 1136 89 1133 q 165 1130 139 1140 q 190 1099 190 1119 l 190 154 l 706 154 q 752 126 735 150 q 769 74 769 101 q 752 22 769 43 q 703 0 735 0 z "},"M":{"ha":836,"x_min":76,"x_max":792,"o":"m 792 43 q 764 5 783 19 q 722 -7 744 -10 q 675 11 697 -7 q 649 57 653 29 l 649 919 l 467 643 q 424 618 450 624 q 376 640 399 622 l 211 919 l 211 57 q 193 10 211 25 q 146 -6 175 -6 q 98 15 119 -6 q 76 63 76 35 l 76 1104 l 89 1124 l 233 1124 q 340 976 292 1044 q 429 846 388 908 l 610 1124 l 765 1124 l 792 1096 l 792 43 z "},"N":{"ha":817,"x_min":68,"x_max":774,"o":"m 774 46 q 740 7 765 22 q 688 -8 715 -8 q 640 8 657 -8 l 201 868 l 201 43 q 169 6 193 21 q 124 -7 144 -10 q 87 10 103 -3 q 71 43 71 24 q 70 264 71 128 q 69 588 69 400 q 68 963 68 775 q 68 1066 68 1025 q 69 1136 68 1107 q 103 1144 83 1142 q 143 1147 124 1147 q 225 1136 185 1147 l 635 296 l 635 1107 q 656 1140 639 1126 q 700 1158 674 1153 q 751 1149 728 1161 q 774 1113 774 1138 l 774 46 z "},"O":{"ha":828,"x_min":65,"x_max":774,"o":"m 410 1165 q 476 1152 444 1168 q 549 1101 507 1136 l 760 719 q 774 608 774 665 q 751 464 774 542 l 556 65 q 488 21 525 43 q 417 -1 451 -1 q 335 24 375 -1 q 265 89 294 49 l 82 461 q 65 581 65 522 q 82 700 65 638 l 261 1069 q 410 1165 343 1165 m 413 1007 q 372 979 388 997 q 286 821 325 897 q 214 663 247 744 l 199 586 l 228 483 q 303 335 265 406 q 396 168 340 264 q 432 157 418 157 l 464 176 q 548 336 504 249 q 626 504 592 424 l 643 578 l 626 660 l 450 993 q 431 1002 442 997 q 413 1007 421 1007 z "},"P":{"ha":825,"x_min":68,"x_max":746,"o":"m 746 558 q 690 465 732 501 q 589 421 649 429 l 211 421 l 211 35 q 144 3 190 3 q 118 5 128 3 q 85 14 108 7 l 68 38 l 68 1099 l 558 1099 q 667 1064 621 1099 q 746 968 714 1029 l 746 558 m 608 592 l 608 919 q 574 948 594 939 q 526 957 553 957 l 211 957 l 211 558 l 540 558 q 586 567 565 558 l 608 592 z "},"Q":{"ha":828,"x_min":82,"x_max":789,"o":"m 779 447 q 722 353 767 393 l 575 222 l 621 136 l 751 136 q 789 68 789 113 q 743 0 789 17 l 546 0 l 524 17 l 469 142 l 344 29 q 281 6 315 15 q 217 -3 246 -3 q 132 45 167 15 q 82 119 97 75 l 82 600 q 108 704 90 661 q 165 783 126 747 l 472 1042 q 537 1080 504 1067 q 610 1093 569 1093 q 698 1065 654 1093 q 772 993 742 1036 q 776 802 775 981 q 779 447 778 624 m 646 493 l 646 933 q 629 944 640 938 q 613 953 618 951 l 589 950 l 236 654 l 214 615 l 214 157 q 254 139 232 139 q 276 144 265 139 l 413 263 l 369 390 q 368 411 368 397 q 385 469 368 446 q 432 492 401 492 q 471 479 457 492 q 501 439 485 467 l 532 350 l 610 421 q 633 456 624 439 q 646 493 642 472 z "},"R":{"ha":825,"x_min":68,"x_max":778,"o":"m 774 828 q 724 669 760 715 q 629 603 689 622 l 467 603 l 771 106 q 778 61 778 81 q 774 35 778 44 q 760 15 771 25 q 736 -1 750 4 q 707 -6 722 -6 q 678 -3 697 -6 q 651 29 664 13 l 310 600 l 201 600 l 201 38 q 183 -9 201 7 q 138 -25 164 -25 q 89 -8 110 -25 q 68 38 68 8 l 68 1067 l 88 1082 l 624 1082 q 739 990 704 1056 q 774 828 774 924 m 618 749 q 636 840 636 789 q 624 908 636 879 q 583 954 613 938 l 201 950 l 201 724 l 589 724 l 618 749 z "},"S":{"ha":836,"x_min":90,"x_max":806,"o":"m 743 828 q 717 833 729 828 q 694 846 706 839 l 632 957 l 258 957 q 242 947 249 954 q 244 914 239 936 l 768 263 q 803 157 803 218 q 801 131 803 146 q 797 108 799 117 q 733 29 775 61 q 643 -3 692 -3 q 618 0 635 -3 l 242 0 q 133 65 175 14 q 90 182 90 115 q 92 206 90 197 q 149 263 108 247 q 196 253 171 263 q 231 180 215 210 q 268 133 246 150 l 640 133 q 657 139 646 133 l 657 163 l 119 851 q 99 940 99 896 q 126 1033 99 993 q 208 1093 153 1074 l 624 1093 q 665 1087 642 1092 q 703 1079 689 1082 q 777 1008 749 1053 q 806 914 806 964 q 792 849 806 881 q 766 832 776 836 q 743 828 756 828 z "},"T":{"ha":782,"x_min":43,"x_max":738,"o":"m 738 876 q 713 844 729 854 q 675 833 697 833 q 603 871 631 833 l 603 956 l 456 956 l 456 46 q 449 28 453 35 q 435 6 446 22 q 386 -6 410 -6 q 342 8 360 -6 q 319 49 325 21 l 319 956 l 179 956 l 179 865 q 110 826 154 826 q 69 839 88 826 q 43 876 51 851 l 43 1099 l 738 1099 l 738 876 z "},"U":{"ha":789,"x_min":46,"x_max":757,"o":"m 757 176 q 615 3 731 47 l 206 3 q 110 51 149 13 q 46 151 72 89 l 46 1036 q 66 1088 46 1069 q 114 1107 86 1107 q 165 1089 143 1107 q 188 1039 188 1071 l 188 182 q 203 149 192 167 q 388 118 282 118 q 498 128 443 118 q 597 154 553 138 q 610 172 606 165 q 615 188 615 179 l 615 1050 q 634 1092 615 1078 q 682 1107 653 1107 q 734 1092 711 1107 q 757 1056 757 1078 l 757 176 z "},"V":{"ha":817,"x_min":60,"x_max":774,"o":"m 774 743 l 450 19 q 400 -10 439 -10 q 353 17 363 -10 l 60 757 l 60 1053 q 80 1087 60 1074 q 128 1100 100 1100 q 179 1085 157 1100 q 201 1042 201 1069 l 201 779 l 418 271 l 635 774 l 635 1050 q 655 1085 635 1072 q 704 1099 675 1099 q 753 1083 733 1099 q 774 1036 774 1068 l 774 743 z "},"W":{"ha":814,"x_min":74,"x_max":782,"o":"m 179 0 q 108 73 135 26 q 74 174 81 119 l 74 1053 q 92 1083 76 1068 q 140 1097 108 1097 q 206 1064 186 1097 l 206 239 q 231 172 206 203 q 290 142 256 142 q 328 152 299 142 q 358 222 358 163 l 358 694 q 377 723 358 713 q 424 733 396 733 q 472 722 450 733 q 493 692 493 710 l 493 231 q 517 188 493 211 q 567 142 540 164 q 621 159 599 139 q 643 206 643 179 l 643 1061 q 707 1096 668 1096 q 782 1047 757 1096 l 782 154 q 654 0 754 44 l 521 0 q 472 24 499 6 q 432 51 446 42 q 392 22 414 38 q 358 0 369 6 l 179 0 z "},"X":{"ha":808,"x_min":85,"x_max":819,"o":"m 803 1071 q 819 1028 819 1051 q 800 971 819 1000 l 532 543 q 651 318 592 422 q 786 103 711 214 q 797 56 797 81 q 775 5 797 18 q 738 -8 753 -8 q 672 25 703 -8 l 447 396 l 199 14 q 161 0 181 0 q 124 11 142 0 q 96 38 107 22 q 85 71 85 54 q 94 105 85 88 q 125 157 103 122 l 367 546 l 108 988 q 99 1039 99 1019 q 117 1081 99 1063 q 160 1100 135 1100 q 198 1091 178 1100 q 233 1067 218 1082 l 456 686 l 703 1076 q 756 1093 733 1093 q 803 1071 782 1093 z "},"Y":{"ha":783,"x_min":68,"x_max":760,"o":"m 760 851 l 469 510 l 469 25 q 406 -11 453 -11 q 357 1 378 -11 q 328 35 336 13 l 328 515 l 68 871 l 68 1061 q 131 1097 83 1097 q 199 1061 178 1097 l 199 914 l 404 651 l 418 654 l 624 914 l 624 1053 q 697 1089 653 1089 q 760 1058 735 1089 l 760 851 z "},"Z":{"ha":806,"x_min":46,"x_max":775,"o":"m 768 40 q 756 19 764 29 q 729 0 747 10 l 82 0 q 57 15 65 0 q 49 50 49 29 q 60 94 49 75 l 561 971 l 94 971 q 72 979 81 971 q 55 1006 64 988 q 46 1038 46 1024 q 54 1069 46 1053 q 73 1095 63 1086 q 100 1104 83 1104 l 738 1104 q 756 1094 749 1104 q 767 1072 763 1083 q 771 1047 771 1060 q 760 1010 771 1029 l 261 139 l 717 139 q 749 124 736 131 q 768 101 761 117 q 775 71 775 86 q 768 40 775 54 z "},"[":{"ha":831,"x_min":79,"x_max":781,"o":"m 779 57 q 753 22 771 36 q 711 0 736 7 l 119 0 q 79 35 93 14 l 79 1050 q 139 1121 93 1100 l 700 1121 q 771 1090 740 1121 q 779 1046 779 1069 q 777 1028 779 1038 q 774 1014 775 1018 q 717 979 754 989 l 424 979 l 424 139 l 714 139 q 736 134 725 139 q 760 125 747 129 q 775 92 769 111 q 779 57 781 74 m 282 139 l 282 976 l 208 976 l 208 139 l 282 139 z "},"\\":{"ha":828,"x_min":39,"x_max":803,"o":"m 803 76 q 760 -6 803 21 q 733 -10 747 -10 q 681 8 706 -10 l 40 988 q 39 1007 39 994 q 56 1056 39 1036 q 106 1076 74 1076 l 146 1064 l 803 76 z "},"]":{"ha":836,"x_min":25,"x_max":743,"o":"m 743 54 q 683 0 725 13 l 63 0 q 33 63 33 28 q 76 136 33 108 l 379 136 l 379 963 l 92 963 q 56 981 74 969 q 28 1010 39 993 q 25 1038 25 1018 q 29 1076 25 1057 q 100 1121 56 1117 l 678 1121 q 720 1097 701 1117 q 743 1053 739 1076 l 743 54 m 610 136 l 610 963 l 532 963 l 532 136 l 610 136 z "},"^":{"ha":846,"x_min":47,"x_max":771,"o":"m 735 208 q 715 199 726 204 q 697 194 704 194 q 686 199 690 194 l 417 478 l 131 199 q 69 233 90 204 q 47 301 47 263 q 92 393 47 360 q 108 396 103 396 q 136 401 131 396 l 422 678 l 703 401 q 753 360 736 389 q 771 296 771 332 q 735 208 771 242 z "},"_":{"ha":1083,"x_min":33,"x_max":994,"o":"m 128 -22 q 100 -15 114 -15 q 54 -31 75 -15 q 33 -69 33 -47 q 50 -122 33 -100 q 94 -144 67 -144 l 950 -144 q 994 -83 994 -131 q 974 -37 994 -57 q 925 -18 953 -18 q 906 -22 917 -18 l 128 -22 z "},"`":{"ha":461,"x_min":50,"x_max":328,"o":"m 161 1078 l 328 822 l 261 822 l 50 1078 l 161 1078 z "},"a":{"ha":806,"x_min":35,"x_max":733,"o":"m 729 54 q 719 8 733 35 q 703 1 714 6 q 686 -3 692 -3 q 672 -6 678 -6 q 635 6 660 -6 l 594 57 q 499 0 553 8 l 196 0 q 88 58 132 11 q 35 171 43 106 l 35 313 q 41 359 35 338 q 60 410 47 381 q 101 450 83 435 q 146 475 119 465 l 586 475 l 586 594 q 556 633 575 618 q 513 649 536 649 l 225 649 q 187 679 200 657 q 174 728 174 701 q 179 763 174 747 q 228 792 200 783 l 569 792 q 672 724 632 772 q 729 608 713 676 l 729 54 m 603 196 l 603 290 q 586 331 597 315 q 550 353 574 343 l 233 353 q 168 299 183 339 l 168 208 q 183 168 168 183 q 225 144 199 153 l 546 144 q 603 196 585 156 z "},"b":{"ha":797,"x_min":65,"x_max":782,"o":"m 782 211 q 715 82 772 138 q 581 0 658 26 l 322 0 q 263 35 290 17 q 201 82 235 54 l 201 29 q 174 12 188 19 q 146 0 161 4 q 65 43 97 0 l 65 1061 q 76 1074 69 1068 q 89 1088 82 1081 q 128 1096 110 1096 q 147 1094 138 1096 q 168 1090 157 1092 q 188 1063 179 1078 q 201 1033 197 1049 l 201 703 q 278 756 236 735 q 369 789 319 778 l 572 789 q 663 758 624 789 q 751 669 701 728 q 769 605 761 639 q 782 540 778 571 l 782 211 m 640 228 l 640 553 q 549 643 617 617 l 315 643 q 201 492 233 586 l 201 315 l 222 250 q 274 183 243 210 q 347 142 306 156 l 535 142 q 593 173 567 150 q 640 228 619 196 z "},"c":{"ha":800,"x_min":75,"x_max":781,"o":"m 779 108 q 781 82 781 100 q 776 47 781 61 q 757 19 771 33 l 724 0 l 388 0 q 348 10 361 6 q 310 25 335 15 l 92 250 q 75 396 75 325 q 97 558 75 475 q 313 782 204 674 q 372 803 343 799 l 719 803 q 776 751 754 786 q 768 681 776 718 q 692 649 733 653 l 372 649 l 208 504 q 190 404 190 447 q 194 357 190 378 q 208 304 197 336 l 375 146 l 722 146 q 779 108 757 139 z "},"d":{"ha":806,"x_min":94,"x_max":797,"o":"m 797 46 q 777 8 794 21 q 736 -6 760 -6 q 665 32 688 -6 l 665 100 q 481 0 585 29 l 315 0 q 180 78 240 26 q 94 199 119 129 l 94 606 q 293 786 156 739 l 524 786 q 592 759 556 776 q 665 719 628 742 l 665 1042 q 674 1061 669 1054 q 688 1075 679 1068 q 708 1086 697 1082 q 724 1090 719 1090 q 774 1082 749 1090 q 797 1053 789 1068 l 797 46 m 660 279 l 660 504 q 628 566 647 540 q 578 621 608 592 q 482 642 532 642 q 458 640 467 642 l 296 640 q 251 604 268 628 q 228 549 235 581 l 228 233 q 303 159 254 183 q 411 135 351 135 q 540 163 481 135 q 605 216 576 189 q 660 279 633 243 z "},"e":{"ha":800,"x_min":49,"x_max":754,"o":"m 751 339 q 717 307 732 318 q 681 296 701 296 l 193 296 l 193 214 q 237 164 208 185 q 299 136 265 143 l 708 136 q 754 72 754 117 q 711 0 754 28 l 239 0 q 105 85 161 22 q 49 225 49 149 l 49 586 q 121 706 64 654 q 253 786 178 757 l 532 786 q 573 774 558 779 q 615 757 588 768 q 722 660 671 714 q 739 612 731 640 q 751 561 747 583 l 751 339 m 603 426 l 603 583 q 472 646 551 646 l 288 646 q 258 635 276 643 q 231 624 240 628 q 208 598 214 606 q 193 575 201 590 l 193 426 l 603 426 z "},"f":{"ha":811,"x_min":67,"x_max":711,"o":"m 711 1039 q 667 953 711 983 l 410 953 l 367 925 l 356 900 l 356 786 l 529 786 q 560 753 549 776 q 567 708 571 731 q 540 667 558 688 l 499 660 l 356 660 l 356 57 q 325 6 347 28 q 271 -10 299 -10 q 247 -6 260 -10 q 231 22 238 8 q 219 49 224 36 l 219 660 l 119 660 q 67 725 67 676 q 74 760 67 739 l 97 786 l 219 786 l 219 928 q 289 1035 243 994 q 404 1093 335 1076 l 660 1093 q 688 1074 678 1085 q 703 1056 699 1064 q 711 1039 707 1047 z "},"g":{"ha":819,"x_min":57,"x_max":789,"o":"m 789 -71 q 696 -267 776 -174 q 515 -361 615 -361 l 165 -361 q 125 -336 143 -354 q 111 -292 111 -314 q 118 -260 111 -272 q 135 -238 125 -247 q 154 -222 144 -229 l 469 -222 q 489 -224 476 -224 q 565 -201 529 -224 q 621 -144 600 -179 q 633 -87 629 -110 q 636 -37 636 -65 q 635 -8 636 -18 l 635 85 q 523 17 590 40 q 382 -6 456 -6 q 231 19 300 -6 q 131 100 169 51 q 68 217 92 149 q 57 374 57 301 q 74 564 57 469 q 160 658 107 618 q 276 724 213 699 l 515 724 q 663 638 597 700 l 663 703 q 714 724 683 724 q 789 681 761 724 l 789 -71 m 649 372 q 626 458 644 417 q 382 593 532 593 q 328 585 361 593 q 253 553 296 578 q 204 473 221 521 q 188 371 188 425 q 204 263 188 314 q 253 174 221 211 q 313 139 285 149 l 472 139 q 602 219 556 156 q 649 372 649 283 z "},"h":{"ha":819,"x_min":33,"x_max":743,"o":"m 743 28 q 685 3 715 3 q 632 23 656 3 q 603 76 608 43 l 603 603 q 550 649 581 635 q 482 664 519 664 q 436 660 460 664 l 182 521 l 182 63 q 156 13 176 32 q 106 -6 135 -6 q 71 3 88 -6 q 38 57 50 28 l 38 1010 q 43 1056 33 1028 q 70 1075 51 1067 q 103 1082 89 1083 q 176 1028 154 1074 l 176 663 q 319 736 244 701 q 472 800 393 771 l 526 800 q 578 792 551 788 l 643 763 q 699 704 678 738 q 743 621 721 671 l 743 28 z "},"i":{"ha":746,"x_min":38,"x_max":633,"o":"m 379 971 q 363 958 372 965 q 347 947 354 950 l 219 947 q 201 958 211 950 q 182 974 190 965 l 182 1129 q 222 1158 201 1151 l 344 1158 q 363 1142 351 1154 q 379 1126 375 1131 l 379 971 m 632 92 q 633 75 633 86 q 586 0 633 22 l 97 0 q 57 63 57 21 q 97 136 57 107 l 258 136 l 258 649 l 85 649 q 64 662 74 654 q 40 683 54 669 q 38 713 38 700 q 44 750 38 732 q 63 779 50 768 l 372 779 q 397 765 392 768 q 415 749 403 761 l 415 136 l 583 136 q 632 92 614 124 z "},"j":{"ha":735,"x_min":39,"x_max":581,"o":"m 510 999 q 469 960 497 974 l 347 960 q 327 972 336 965 q 307 988 318 978 l 307 1131 q 336 1158 322 1151 l 481 1158 q 510 1126 496 1147 l 510 999 m 581 -114 q 513 -242 569 -186 q 385 -299 457 -299 l 190 -299 q 85 -231 132 -279 q 39 -129 39 -183 q 60 -66 39 -90 q 104 -42 82 -42 q 144 -54 122 -42 l 208 -151 l 390 -151 q 413 -105 404 -126 q 426 -60 422 -83 l 426 663 l 149 663 q 119 726 119 692 q 128 765 119 744 q 151 784 142 776 q 168 797 160 792 l 507 797 q 581 738 554 776 l 581 -114 z "},"k":{"ha":800,"x_min":78,"x_max":768,"o":"m 768 32 l 751 -3 q 716 -18 735 -12 q 681 -22 697 -24 l 271 325 l 219 293 l 219 46 q 196 0 211 22 q 140 -8 168 -8 q 120 -6 132 -8 q 103 -3 108 -4 q 79 32 94 6 l 79 1010 q 81 1028 78 1015 q 85 1050 83 1042 q 115 1076 96 1067 q 154 1088 133 1085 q 192 1076 175 1092 q 217 1039 210 1060 l 219 1025 l 219 472 l 583 749 q 616 769 597 763 q 653 776 635 776 q 678 774 661 776 q 705 742 700 756 q 710 715 710 728 q 706 669 707 692 l 388 407 l 763 68 l 768 32 z "},"l":{"ha":719,"x_min":38,"x_max":604,"o":"m 592 117 q 604 64 604 93 q 583 6 604 29 l 540 0 l 79 0 q 43 32 54 15 q 39 57 40 49 q 38 72 38 65 q 54 125 38 100 q 76 132 60 128 q 97 136 92 136 l 258 136 l 258 963 l 79 963 q 54 1026 54 986 q 68 1082 54 1057 l 94 1099 l 382 1099 l 399 1071 l 410 1039 l 410 136 l 550 136 q 592 117 571 132 z "},"m":{"ha":836,"x_min":57,"x_max":794,"o":"m 794 32 q 717 -7 764 -7 q 678 3 696 -7 q 649 35 660 14 l 649 606 l 640 632 q 623 649 633 640 q 608 663 613 658 q 549 626 578 646 q 486 572 519 606 l 486 32 q 453 -6 472 6 q 383 1 407 -6 q 344 35 360 7 l 344 613 q 290 654 324 642 q 179 567 221 618 l 179 40 q 174 24 176 31 q 160 3 171 18 q 115 -11 136 -11 q 88 -3 103 -11 q 72 13 79 6 q 57 32 65 19 l 57 746 q 88 782 71 769 q 121 786 103 786 q 176 763 158 786 l 176 708 l 274 776 q 318 786 299 786 q 340 786 329 786 q 367 781 350 786 q 407 768 383 775 l 467 700 l 594 786 q 733 761 690 786 q 794 689 776 736 l 794 32 z "},"n":{"ha":779,"x_min":40,"x_max":735,"o":"m 735 43 q 697 -8 726 11 q 668 -11 678 -11 q 638 -8 657 -11 q 606 20 621 6 q 589 54 590 35 l 589 606 l 540 640 q 495 650 519 646 q 450 654 471 654 q 415 642 432 650 q 382 626 397 633 l 179 496 l 179 43 q 167 24 172 31 q 144 3 161 18 q 103 -8 122 -8 q 63 3 85 -8 q 46 31 50 22 q 40 49 42 40 l 40 719 q 51 763 40 735 q 108 790 74 790 q 153 774 132 790 q 179 732 174 758 l 179 663 q 274 715 224 686 q 372 776 324 744 q 412 788 386 782 q 456 794 438 793 q 637 748 554 794 q 735 613 719 701 l 735 43 z "},"o":{"ha":803,"x_min":57,"x_max":768,"o":"m 768 242 q 685 92 750 158 q 535 0 621 26 l 285 0 l 214 19 q 115 106 156 54 q 57 222 74 157 l 57 603 q 115 694 79 654 q 201 774 150 735 l 263 800 q 372 801 299 800 q 483 803 446 803 q 540 797 511 803 q 606 779 568 790 l 689 719 l 740 649 l 768 526 l 768 242 m 626 256 l 621 567 l 567 621 q 517 644 540 636 q 450 660 494 651 l 279 646 q 228 613 250 636 q 193 556 206 589 q 196 387 193 478 q 201 236 199 296 l 242 174 l 315 146 l 535 149 q 591 190 568 163 q 626 256 614 217 z "},"p":{"ha":817,"x_min":85,"x_max":804,"o":"m 803 310 l 768 214 q 673 120 722 168 q 575 28 624 72 q 515 7 544 13 q 450 1 486 1 q 415 3 426 1 q 372 8 403 4 l 239 88 l 239 -219 q 222 -244 228 -237 q 206 -262 217 -251 q 160 -272 185 -272 q 100 -250 128 -272 q 90 -231 94 -239 q 85 -217 86 -222 l 85 825 q 125 868 96 849 q 151 869 133 869 q 176 868 168 869 q 217 822 204 850 l 217 768 l 356 871 q 456 879 406 879 q 481 879 468 879 q 504 876 497 876 q 631 794 571 840 q 754 686 692 747 q 794 569 785 632 q 804 424 804 506 q 803 374 804 399 q 803 324 803 349 l 803 310 m 663 379 l 640 606 q 537 692 582 656 q 447 735 492 728 q 401 726 422 735 l 356 708 l 228 569 l 214 546 l 222 331 l 393 165 l 435 149 l 513 165 l 524 176 l 651 296 l 663 379 z "},"q":{"ha":817,"x_min":56,"x_max":771,"o":"m 771 -250 q 708 -285 746 -285 q 663 -269 682 -285 q 638 -222 644 -253 l 638 108 l 524 17 q 455 1 493 6 q 376 -4 417 -4 q 330 -3 353 -4 q 283 -3 307 -3 l 271 -3 q 169 63 215 24 q 85 157 124 103 q 68 201 76 178 q 57 239 60 224 l 57 540 q 56 561 56 554 q 126 713 56 649 q 293 808 196 776 l 483 808 q 555 770 515 792 q 626 726 594 749 l 626 794 q 665 819 647 815 q 690 822 683 822 q 737 810 713 822 q 771 763 761 797 l 771 -250 m 638 322 l 638 521 l 493 643 l 447 665 l 304 665 q 240 627 267 651 q 201 569 213 603 l 201 256 q 293 149 224 182 l 461 146 l 615 274 l 638 322 z "},"r":{"ha":806,"x_min":57,"x_max":774,"o":"m 774 543 q 706 496 749 504 q 635 540 667 504 l 615 646 q 592 663 604 656 q 561 678 581 669 l 504 692 l 421 657 l 199 481 l 199 38 q 189 17 192 21 q 176 3 186 13 q 131 -7 156 -7 q 57 38 81 -7 l 57 724 q 89 792 67 765 q 106 797 97 796 q 121 799 115 797 q 157 794 144 796 q 199 749 185 774 l 199 657 l 418 811 q 469 821 440 817 q 521 825 497 825 q 669 788 604 825 q 760 675 733 751 l 774 543 z "},"s":{"ha":797,"x_min":60,"x_max":767,"o":"m 760 290 q 767 222 767 251 q 742 112 767 160 q 671 38 717 64 q 586 0 625 13 l 208 0 q 133 28 164 13 q 74 74 101 44 q 60 126 60 97 q 78 178 60 158 q 133 196 97 199 q 192 169 156 196 q 239 139 228 143 l 578 139 q 621 176 603 153 q 631 203 628 196 q 635 222 633 211 q 578 293 622 267 l 139 489 q 94 545 108 513 q 81 617 81 578 q 122 740 81 685 q 231 800 164 794 l 626 800 q 709 758 674 788 q 740 686 744 729 q 683 615 728 638 l 649 615 l 564 675 l 263 675 l 233 663 q 223 636 226 647 q 222 608 219 625 q 238 582 236 585 q 253 572 240 579 l 667 407 q 760 290 728 357 z "},"t":{"ha":811,"x_min":19,"x_max":735,"o":"m 735 233 q 733 178 735 208 q 729 133 731 149 q 690 78 714 106 q 638 28 665 51 l 558 0 l 347 3 q 242 56 288 13 q 168 160 197 99 l 168 678 l 43 678 q 19 746 19 706 q 49 817 19 789 l 171 817 l 171 1019 q 194 1045 179 1035 q 225 1056 208 1056 q 265 1053 253 1056 q 301 1019 290 1038 l 301 817 l 608 817 q 633 807 622 815 q 657 783 644 799 q 661 749 661 767 q 651 705 661 722 q 618 678 642 688 l 301 678 l 301 211 q 333 163 310 183 q 351 153 343 157 q 376 146 358 150 l 556 146 q 609 206 581 160 q 649 263 638 251 q 674 267 661 267 q 735 233 710 267 z "},"u":{"ha":786,"x_min":54,"x_max":743,"o":"m 743 43 q 737 26 740 32 q 722 3 733 19 q 685 -4 699 -4 q 608 63 625 -4 l 608 139 l 344 -6 l 250 -6 q 119 65 165 8 q 54 211 72 122 l 54 808 q 88 826 68 819 q 128 832 108 832 q 146 831 140 831 q 182 789 172 817 l 182 217 q 236 152 196 171 q 331 133 276 133 l 610 285 l 610 782 q 643 822 622 806 q 682 831 663 831 q 724 819 701 831 l 743 771 l 743 43 z "},"v":{"ha":782,"x_min":54,"x_max":757,"o":"m 757 594 l 493 40 q 451 6 476 17 q 399 -6 426 -6 q 325 14 360 -6 l 54 603 l 54 783 q 88 822 71 807 q 122 831 104 836 q 188 783 167 826 l 188 618 l 415 171 l 624 624 l 624 783 q 693 821 651 821 q 743 803 721 821 l 757 782 l 757 594 z "},"w":{"ha":782,"x_min":29,"x_max":771,"o":"m 771 322 l 632 11 q 565 -4 597 -4 q 501 8 535 -4 l 388 199 q 303 83 322 110 q 256 11 285 56 q 226 1 247 7 q 196 -6 204 -4 q 139 11 165 -1 l 29 310 l 29 776 q 51 811 35 789 q 75 819 61 817 q 100 822 89 822 q 124 820 115 822 q 149 808 132 818 l 165 783 l 165 301 l 222 190 l 322 319 l 322 493 q 346 550 322 525 q 399 575 369 575 q 442 556 424 575 q 453 529 447 546 q 461 501 460 513 l 461 319 l 558 179 l 626 319 l 626 757 q 652 797 633 778 q 692 822 671 815 q 740 814 715 822 q 760 787 753 803 q 771 751 768 771 l 771 322 z "},"x":{"ha":800,"x_min":33,"x_max":753,"o":"m 751 54 q 744 33 749 42 q 726 8 740 25 q 679 -6 707 -6 q 621 22 640 -6 l 399 282 l 157 3 q 119 -8 139 -8 q 85 0 101 -8 q 67 60 67 26 q 71 92 67 75 l 313 385 q 177 543 240 474 q 40 681 114 613 q 35 701 36 694 q 33 722 33 708 q 49 775 33 754 q 96 796 65 796 q 125 790 107 796 q 151 763 143 783 q 396 499 275 639 l 638 792 q 675 814 656 810 q 730 788 707 811 q 753 735 753 765 q 749 711 753 724 l 489 399 l 738 100 q 746 76 742 93 q 751 54 750 60 z "},"y":{"ha":792,"x_min":82,"x_max":789,"o":"m 789 575 l 456 -312 l 432 -339 l 199 -339 q 151 -319 176 -335 q 138 -267 138 -287 q 146 -228 138 -249 q 193 -206 168 -210 l 356 -208 l 435 0 l 353 40 l 82 558 l 82 746 q 85 765 82 756 q 94 789 89 775 q 153 810 119 810 q 214 783 189 810 l 228 754 l 228 569 l 475 133 l 651 578 l 651 754 q 714 808 669 800 q 754 803 731 813 q 789 765 776 789 l 789 575 z "},"z":{"ha":806,"x_min":69,"x_max":799,"o":"m 768 139 q 799 78 799 117 q 754 0 799 26 l 146 0 q 126 3 133 0 q 105 15 118 6 q 85 33 92 24 q 71 57 79 43 q 69 81 69 65 q 72 112 69 96 q 79 144 75 128 l 586 651 l 586 672 l 569 681 l 179 681 q 111 722 136 685 q 108 742 108 736 q 127 795 108 771 q 176 822 146 819 l 717 822 q 732 819 722 822 q 751 814 742 817 q 789 728 789 785 q 768 651 789 685 l 288 168 l 279 149 l 299 139 l 768 139 z "},"{":{"ha":797,"x_min":43,"x_max":764,"o":"m 763 1076 q 764 1053 764 1069 q 763 1026 764 1040 q 760 999 761 1013 l 717 976 l 518 976 q 489 971 513 978 q 481 950 485 960 q 475 931 476 940 l 475 646 q 393 567 440 599 q 439 531 419 551 q 475 481 458 510 l 475 168 l 483 149 l 504 133 l 722 133 q 751 74 751 110 q 703 0 751 26 l 432 0 q 328 88 363 22 l 328 458 l 307 486 l 276 496 l 94 496 q 56 520 69 503 q 43 561 43 538 q 49 594 43 579 q 85 629 61 615 l 265 629 l 301 643 l 328 672 l 328 1033 q 370 1088 346 1067 q 429 1118 394 1110 l 697 1118 q 728 1107 715 1117 q 763 1076 742 1097 z "},"|":{"ha":558,"x_min":103,"x_max":239,"o":"m 239 458 l 103 458 l 103 1047 l 239 1047 l 239 458 m 239 0 l 103 0 l 103 424 l 239 424 l 239 0 z "},"}":{"ha":814,"x_min":96,"x_max":833,"o":"m 833 569 q 817 525 833 544 q 774 492 800 506 l 567 492 q 535 444 546 471 l 535 89 q 519 58 529 74 q 499 28 510 43 q 435 0 468 8 l 206 0 q 176 5 189 3 q 151 14 164 7 q 118 74 118 38 q 168 142 118 121 q 203 144 188 147 l 375 144 l 388 151 l 390 165 l 390 464 q 483 561 419 529 q 428 592 453 571 q 390 640 404 613 l 390 957 l 388 974 l 375 979 l 136 979 q 106 1002 115 985 q 96 1043 96 1019 q 108 1093 96 1072 l 136 1104 l 144 1113 l 444 1113 q 494 1063 476 1093 q 524 988 511 1032 l 524 686 q 527 673 524 681 q 532 663 531 665 l 556 638 l 771 638 q 797 626 789 631 q 817 609 804 622 q 833 569 829 596 z "},"~":{"ha":1050,"x_min":29,"x_max":985,"o":"m 39 722 q 103 786 51 768 q 194 817 156 804 q 275 831 233 831 q 294 829 283 831 q 332 825 306 828 q 412 776 358 822 q 494 717 465 729 q 569 678 540 692 q 628 664 597 664 q 674 671 646 664 q 767 733 701 678 q 868 792 833 788 q 922 799 903 796 q 972 781 958 799 q 985 750 985 764 q 958 706 985 729 q 906 661 931 682 q 796 583 851 606 q 661 561 740 561 q 533 573 586 561 q 438 606 479 585 q 360 667 396 628 q 302 709 324 706 q 267 713 281 713 q 199 694 239 713 q 144 672 160 676 q 103 649 129 668 q 64 631 76 631 q 42 642 56 631 q 29 675 29 653 q 33 700 29 686 q 39 722 38 714 z "},"Ä":{"ha":894,"x_min":36,"x_max":761,"o":"m 625 1140 q 613 1123 622 1132 q 593 1107 604 1114 l 508 1107 q 468 1135 481 1107 l 468 1261 q 483 1281 472 1275 q 511 1293 494 1288 l 583 1293 q 625 1254 611 1283 l 625 1140 m 346 1140 q 334 1123 343 1132 q 314 1107 325 1114 l 229 1107 q 189 1135 201 1107 l 189 1261 q 204 1281 193 1275 q 232 1293 215 1288 l 304 1293 q 346 1254 332 1283 l 346 1140 m 760 63 q 760 39 761 53 q 754 14 758 25 q 718 -12 735 -3 q 685 -22 701 -22 q 653 -10 669 -22 q 624 29 638 1 l 543 233 l 242 233 l 154 14 q 82 -18 118 -18 q 36 40 36 -18 q 46 100 36 67 l 344 1093 q 401 1107 372 1107 q 458 1093 432 1107 l 760 63 m 518 379 l 407 760 l 396 760 l 276 379 l 518 379 z "},"Å":{"ha":800,"x_min":36,"x_max":761,"o":"m 514 1207 q 492 1165 508 1182 q 450 1140 475 1149 l 381 1140 l 361 1146 q 318 1201 328 1165 l 318 1306 q 334 1331 324 1319 q 358 1353 344 1343 l 375 1360 q 406 1360 390 1360 q 436 1361 421 1360 q 469 1354 458 1358 l 492 1338 l 507 1318 l 514 1285 l 514 1207 m 760 63 q 760 39 761 53 q 754 14 758 25 q 718 -12 735 -3 q 685 -22 701 -22 q 653 -10 669 -22 q 624 29 638 1 l 543 233 l 242 233 l 154 14 q 82 -18 118 -18 q 36 40 36 -18 q 46 100 36 67 l 344 1093 q 401 1107 372 1107 q 458 1093 432 1107 l 760 63 m 475 1211 l 474 1296 l 458 1311 q 426 1322 447 1318 l 379 1318 q 356 1293 363 1313 q 356 1251 356 1271 q 358 1206 356 1232 l 369 1188 l 389 1181 l 450 1181 q 475 1211 468 1189 m 518 379 l 407 760 l 396 760 l 276 379 l 518 379 z "},"Ç":{"ha":814,"x_min":19,"x_max":754,"o":"m 281 32 q 242 85 256 57 l 49 461 q 19 567 19 518 q 42 656 19 604 l 211 1017 q 256 1096 235 1069 q 318 1122 278 1122 l 697 1124 q 727 1104 717 1124 q 738 1056 738 1085 q 724 1003 738 1025 q 689 988 711 982 l 347 988 q 226 726 279 842 q 174 594 174 610 q 165 561 165 578 q 174 532 165 549 l 379 131 l 708 131 q 742 101 729 125 q 754 47 754 76 q 749 13 754 28 q 734 -8 743 -1 q 710 -15 725 -15 q 655 -5 699 -15 q 603 3 611 6 l 604 -181 l 443 -294 q 439 -312 443 -304 q 425 -332 435 -319 q 376 -342 399 -342 q 335 -331 353 -342 q 308 -297 317 -321 l 308 -286 l 465 -125 l 468 -15 l 315 -15 q 281 32 290 3 z "},"É":{"ha":840,"x_min":82,"x_max":782,"o":"m 710 982 l 222 982 l 222 632 l 429 632 q 478 608 460 629 q 497 560 497 586 q 484 519 497 538 q 444 496 471 501 l 222 496 l 222 144 l 719 144 q 765 115 747 139 q 782 63 782 90 q 769 20 782 38 q 729 0 756 3 l 82 0 l 82 1131 l 692 1131 q 742 1104 724 1131 q 761 1042 761 1078 q 749 999 761 1015 q 710 982 736 982 m 367 1194 l 522 1461 l 639 1461 l 422 1189 l 367 1194 z "},"Ñ":{"ha":817,"x_min":11,"x_max":776,"o":"m 774 46 q 740 7 765 22 q 688 -8 715 -8 q 640 8 657 -8 l 201 868 l 201 43 q 169 6 193 21 q 124 -7 144 -10 q 87 10 103 -3 q 71 43 71 24 q 70 264 71 128 q 69 588 69 400 q 68 963 68 775 q 68 1066 68 1025 q 69 1136 68 1107 q 103 1144 83 1142 q 143 1147 124 1147 q 225 1136 185 1147 l 635 296 l 635 1107 q 656 1140 639 1126 q 700 1158 674 1153 q 751 1149 728 1161 q 774 1113 774 1138 l 774 46 m 19 1379 q 71 1429 29 1414 q 131 1451 113 1444 q 170 1461 150 1457 q 208 1465 190 1465 q 247 1462 218 1465 q 320 1420 276 1458 q 392 1368 364 1382 q 443 1343 421 1354 q 490 1332 465 1332 q 522 1338 496 1332 q 602 1387 549 1343 q 686 1435 656 1431 q 725 1439 717 1439 q 767 1425 757 1439 q 776 1401 776 1411 q 755 1365 776 1385 q 713 1329 733 1346 q 624 1268 669 1286 q 517 1250 578 1250 q 414 1258 454 1250 q 339 1285 374 1267 q 275 1334 304 1303 q 229 1368 246 1365 q 201 1371 213 1371 q 149 1357 181 1371 q 106 1340 117 1343 q 73 1321 94 1336 q 40 1306 51 1306 q 22 1315 33 1306 q 11 1340 11 1324 q 19 1379 11 1351 z "},"Ö":{"ha":828,"x_min":65,"x_max":774,"o":"m 718 1221 q 703 1196 714 1207 q 672 1172 692 1185 l 550 1172 q 517 1183 533 1172 q 493 1213 501 1194 l 493 1392 q 517 1421 501 1411 q 556 1438 532 1431 l 658 1438 q 718 1383 697 1424 l 718 1221 m 318 1221 q 303 1196 314 1207 q 272 1172 292 1185 l 150 1172 q 117 1183 133 1172 q 93 1213 101 1194 l 93 1392 q 117 1421 101 1411 q 156 1438 132 1431 l 258 1438 q 318 1383 297 1424 l 318 1221 m 760 719 q 774 608 774 665 q 751 464 774 542 l 556 65 q 488 21 525 43 q 417 -1 451 -1 q 335 24 375 -1 q 265 89 294 49 l 82 461 q 65 581 65 522 q 82 700 65 638 l 261 1069 q 410 1165 343 1165 q 476 1152 444 1168 q 549 1101 507 1136 l 760 719 m 643 578 l 626 660 l 450 993 q 431 1002 442 997 q 413 1007 421 1007 q 372 979 388 997 q 286 821 325 897 q 214 663 247 744 l 199 586 l 228 483 q 303 335 265 406 q 396 168 340 264 q 432 157 418 157 l 464 176 q 548 336 504 249 q 626 504 592 424 l 643 578 z "},"Ü":{"ha":789,"x_min":46,"x_max":757,"o":"m 711 1179 q 696 1154 707 1165 q 665 1131 685 1143 l 543 1131 q 510 1142 526 1131 q 486 1171 494 1153 l 486 1350 q 510 1379 494 1369 q 549 1396 525 1389 l 651 1396 q 711 1342 690 1382 l 711 1179 m 311 1179 q 296 1154 307 1165 q 265 1131 285 1143 l 143 1131 q 110 1142 126 1131 q 86 1171 94 1153 l 86 1350 q 110 1379 94 1369 q 149 1396 125 1389 l 251 1396 q 311 1342 290 1382 l 311 1179 m 757 176 q 615 3 731 47 l 206 3 q 110 51 149 13 q 46 151 72 89 l 46 1036 q 66 1088 46 1069 q 114 1107 86 1107 q 165 1089 143 1107 q 188 1039 188 1071 l 188 182 q 203 149 192 167 q 388 118 282 118 q 498 128 443 118 q 597 154 553 138 q 610 172 606 165 q 615 188 615 179 l 615 1050 q 634 1092 615 1078 q 682 1107 653 1107 q 734 1092 711 1107 q 757 1056 757 1078 l 757 176 z "},"á":{"ha":806,"x_min":35,"x_max":733,"o":"m 729 54 q 719 8 733 35 q 703 1 714 6 q 686 -3 692 -3 q 672 -6 678 -6 q 635 6 660 -6 l 594 57 q 499 0 553 8 l 196 0 q 88 58 132 11 q 35 171 43 106 l 35 313 q 41 359 35 338 q 60 410 47 381 q 101 450 83 435 q 146 475 119 465 l 586 475 l 586 594 q 556 633 575 618 q 513 649 536 649 l 225 649 q 187 679 200 657 q 174 728 174 701 q 179 763 174 747 q 228 792 200 783 l 569 792 q 672 724 632 772 q 729 608 713 676 l 729 54 m 603 196 l 603 290 q 586 331 597 315 q 550 353 574 343 l 233 353 q 168 299 183 339 l 168 208 q 183 168 168 183 q 225 144 199 153 l 546 144 q 603 196 585 156 m 353 875 l 508 1142 l 625 1142 l 408 869 l 353 875 z "},"à":{"ha":806,"x_min":35,"x_max":733,"o":"m 729 54 q 719 8 733 35 q 703 1 714 6 q 686 -3 692 -3 q 672 -6 678 -6 q 635 6 660 -6 l 594 57 q 499 0 553 8 l 196 0 q 88 58 132 11 q 35 171 43 106 l 35 313 q 41 359 35 338 q 60 410 47 381 q 101 450 83 435 q 146 475 119 465 l 586 475 l 586 594 q 556 633 575 618 q 513 649 536 649 l 225 649 q 187 679 200 657 q 174 728 174 701 q 179 763 174 747 q 228 792 200 783 l 569 792 q 672 724 632 772 q 729 608 713 676 l 729 54 m 603 196 l 603 290 q 586 331 597 315 q 550 353 574 343 l 233 353 q 168 299 183 339 l 168 208 q 183 168 168 183 q 225 144 199 153 l 546 144 q 603 196 585 156 m 314 1154 l 481 899 l 414 899 l 203 1154 l 314 1154 z "},"â":{"ha":806,"x_min":35,"x_max":733,"o":"m 729 54 q 719 8 733 35 q 703 1 714 6 q 686 -3 692 -3 q 672 -6 678 -6 q 635 6 660 -6 l 594 57 q 499 0 553 8 l 196 0 q 88 58 132 11 q 35 171 43 106 l 35 313 q 41 359 35 338 q 60 410 47 381 q 101 450 83 435 q 146 475 119 465 l 586 475 l 586 594 q 556 633 575 618 q 513 649 536 649 l 225 649 q 187 679 200 657 q 174 728 174 701 q 179 763 174 747 q 228 792 200 783 l 569 792 q 672 724 632 772 q 729 608 713 676 l 729 54 m 603 196 l 603 290 q 586 331 597 315 q 550 353 574 343 l 233 353 q 168 299 183 339 l 168 208 q 183 168 168 183 q 225 144 199 153 l 546 144 q 603 196 585 156 m 596 851 q 571 847 574 844 l 436 986 l 293 847 q 251 899 251 854 q 274 944 251 926 q 296 949 285 946 l 439 1086 l 579 949 q 605 928 596 943 q 614 896 614 914 q 596 851 614 869 z "},"ä":{"ha":806,"x_min":35,"x_max":733,"o":"m 704 894 q 689 869 700 881 q 658 846 678 858 l 536 846 q 503 857 519 846 q 479 886 488 868 l 479 1065 q 503 1094 488 1085 q 542 1111 518 1104 l 644 1111 q 704 1057 683 1097 l 704 894 m 304 894 q 289 869 300 881 q 258 846 278 858 l 136 846 q 103 857 119 846 q 79 886 88 868 l 79 1065 q 103 1094 88 1085 q 142 1111 118 1104 l 244 1111 q 304 1057 283 1097 l 304 894 m 729 54 q 719 8 733 35 q 703 1 714 6 q 686 -3 692 -3 q 672 -6 678 -6 q 635 6 660 -6 l 594 57 q 499 0 553 8 l 196 0 q 88 58 132 11 q 35 171 43 106 l 35 313 q 41 359 35 338 q 60 410 47 381 q 101 450 83 435 q 146 475 119 465 l 586 475 l 586 594 q 556 633 575 618 q 513 649 536 649 l 225 649 q 187 679 200 657 q 174 728 174 701 q 179 763 174 747 q 228 792 200 783 l 569 792 q 672 724 632 772 q 729 608 713 676 l 729 54 m 603 196 l 603 290 q 586 331 597 315 q 550 353 574 343 l 233 353 q 168 299 183 339 l 168 208 q 183 168 168 183 q 225 144 199 153 l 546 144 q 603 196 585 156 z "},"ã":{"ha":806,"x_min":11,"x_max":776,"o":"m 729 54 q 719 8 733 35 q 703 1 714 6 q 686 -3 692 -3 q 672 -6 678 -6 q 635 6 660 -6 l 594 57 q 499 0 553 8 l 196 0 q 88 58 132 11 q 35 171 43 106 l 35 313 q 41 359 35 338 q 60 410 47 381 q 101 450 83 435 q 146 475 119 465 l 586 475 l 586 594 q 556 633 575 618 q 513 649 536 649 l 225 649 q 187 679 200 657 q 174 728 174 701 q 179 763 174 747 q 228 792 200 783 l 569 792 q 672 724 632 772 q 729 608 713 676 l 729 54 m 603 196 l 603 290 q 586 331 597 315 q 550 353 574 343 l 233 353 q 168 299 183 339 l 168 208 q 183 168 168 183 q 225 144 199 153 l 546 144 q 603 196 585 156 m 19 1011 q 71 1061 29 1046 q 131 1083 113 1076 q 170 1093 150 1089 q 208 1097 190 1097 q 247 1094 218 1097 q 320 1052 276 1090 q 392 1000 364 1014 q 443 975 421 986 q 490 964 465 964 q 522 969 496 964 q 602 1019 549 975 q 686 1067 656 1063 q 725 1071 717 1071 q 767 1057 757 1071 q 776 1033 776 1043 q 755 997 776 1017 q 713 961 733 978 q 624 900 669 918 q 517 882 578 882 q 414 890 454 882 q 339 917 374 899 q 275 966 304 935 q 229 1000 246 997 q 201 1003 213 1003 q 149 989 181 1003 q 106 972 117 975 q 73 953 94 968 q 40 938 51 938 q 22 947 33 938 q 11 972 11 956 q 19 1011 11 983 z "},"å":{"ha":806,"x_min":35,"x_max":733,"o":"m 521 950 q 499 908 515 925 q 457 883 482 892 l 388 883 l 368 889 q 325 944 335 908 l 325 1049 q 341 1074 331 1063 q 365 1096 351 1086 l 382 1103 q 413 1103 397 1103 q 443 1104 428 1103 q 476 1097 465 1101 l 499 1081 l 514 1061 l 521 1028 l 521 950 m 729 54 q 719 8 733 35 q 703 1 714 6 q 686 -3 692 -3 q 672 -6 678 -6 q 635 6 660 -6 l 594 57 q 499 0 553 8 l 196 0 q 88 58 132 11 q 35 171 43 106 l 35 313 q 41 359 35 338 q 60 410 47 381 q 101 450 83 435 q 146 475 119 465 l 586 475 l 586 594 q 556 633 575 618 q 513 649 536 649 l 225 649 q 187 679 200 657 q 174 728 174 701 q 179 763 174 747 q 228 792 200 783 l 569 792 q 672 724 632 772 q 729 608 713 676 l 729 54 m 482 954 l 481 1039 l 465 1054 q 433 1065 454 1061 l 386 1061 q 363 1036 369 1056 q 363 994 363 1014 q 365 949 363 975 l 376 931 l 396 924 l 457 924 q 482 954 475 932 m 603 196 l 603 290 q 586 331 597 315 q 550 353 574 343 l 233 353 q 168 299 183 339 l 168 208 q 183 168 168 183 q 225 144 199 153 l 546 144 q 603 196 585 156 z "},"ç":{"ha":800,"x_min":75,"x_max":781,"o":"m 583 -21 l 583 -104 l 597 -97 l 492 -253 q 488 -270 492 -262 q 474 -290 483 -278 q 425 -300 447 -300 q 383 -290 401 -300 q 357 -256 365 -279 l 357 -244 l 451 -111 l 451 0 l 310 25 l 92 250 q 75 396 75 325 q 97 558 75 475 q 313 782 204 674 q 372 803 343 799 l 719 803 q 776 751 754 786 q 768 681 776 718 q 692 649 733 653 l 372 649 l 208 504 q 190 404 190 447 q 194 357 190 378 q 208 304 197 336 l 375 146 l 722 146 q 779 108 757 139 q 781 82 781 100 q 776 47 781 61 q 757 19 771 33 l 724 0 l 583 -7 l 583 -21 z "},"é":{"ha":800,"x_min":49,"x_max":754,"o":"m 751 339 q 717 307 732 318 q 681 296 701 296 l 193 296 l 193 214 q 237 164 208 185 q 299 136 265 143 l 708 136 q 754 72 754 117 q 711 0 754 28 l 239 0 q 105 85 161 22 q 49 225 49 149 l 49 586 q 121 706 64 654 q 253 786 178 757 l 532 786 q 573 774 558 779 q 615 757 588 768 q 722 660 671 714 q 739 612 731 640 q 751 561 747 583 l 751 339 m 603 426 l 603 583 q 472 646 551 646 l 288 646 q 258 635 276 643 q 231 624 240 628 q 208 598 214 606 q 193 575 201 590 l 193 426 l 603 426 m 381 861 l 536 1128 l 653 1128 l 436 856 l 381 861 z "},"è":{"ha":800,"x_min":49,"x_max":754,"o":"m 751 339 q 717 307 732 318 q 681 296 701 296 l 193 296 l 193 214 q 237 164 208 185 q 299 136 265 143 l 708 136 q 754 72 754 117 q 711 0 754 28 l 239 0 q 105 85 161 22 q 49 225 49 149 l 49 586 q 121 706 64 654 q 253 786 178 757 l 532 786 q 573 774 558 779 q 615 757 588 768 q 722 660 671 714 q 739 612 731 640 q 751 561 747 583 l 751 339 m 603 426 l 603 583 q 472 646 551 646 l 288 646 q 258 635 276 643 q 231 624 240 628 q 208 598 214 606 q 193 575 201 590 l 193 426 l 603 426 m 279 1099 l 446 843 l 379 843 l 168 1099 l 279 1099 z "},"ê":{"ha":800,"x_min":49,"x_max":754,"o":"m 751 339 q 717 307 732 318 q 681 296 701 296 l 193 296 l 193 214 q 237 164 208 185 q 299 136 265 143 l 708 136 q 754 72 754 117 q 711 0 754 28 l 239 0 q 105 85 161 22 q 49 225 49 149 l 49 586 q 121 706 64 654 q 253 786 178 757 l 532 786 q 573 774 558 779 q 615 757 588 768 q 722 660 671 714 q 739 612 731 640 q 751 561 747 583 l 751 339 m 603 426 l 603 583 q 472 646 551 646 l 288 646 q 258 635 276 643 q 231 624 240 628 q 208 598 214 606 q 193 575 201 590 l 193 426 l 603 426 m 582 844 q 557 840 560 838 l 422 979 l 279 840 q 238 892 238 847 q 260 938 238 919 q 282 942 271 939 l 425 1079 l 565 942 q 591 922 582 936 q 600 889 600 907 q 582 844 600 863 z "},"ë":{"ha":800,"x_min":49,"x_max":754,"o":"m 704 888 q 689 863 700 874 q 658 839 678 851 l 536 839 q 503 850 519 839 q 479 879 488 861 l 479 1058 q 503 1088 488 1078 q 542 1104 518 1097 l 644 1104 q 704 1050 683 1090 l 704 888 m 304 888 q 289 863 300 874 q 258 839 278 851 l 136 839 q 103 850 119 839 q 79 879 88 861 l 79 1058 q 103 1088 88 1078 q 142 1104 118 1097 l 244 1104 q 304 1050 283 1090 l 304 888 m 751 339 q 717 307 732 318 q 681 296 701 296 l 193 296 l 193 214 q 237 164 208 185 q 299 136 265 143 l 708 136 q 754 72 754 117 q 711 0 754 28 l 239 0 q 105 85 161 22 q 49 225 49 149 l 49 586 q 121 706 64 654 q 253 786 178 757 l 532 786 q 573 774 558 779 q 615 757 588 768 q 722 660 671 714 q 739 612 731 640 q 751 561 747 583 l 751 339 m 603 426 l 603 583 q 472 646 551 646 l 288 646 q 258 635 276 643 q 231 624 240 628 q 208 598 214 606 q 193 575 201 590 l 193 426 l 603 426 z "},"í":{"ha":746,"x_min":38,"x_max":633,"o":"m 632 92 q 633 75 633 86 q 586 0 633 22 l 97 0 q 57 63 57 21 q 97 136 57 107 l 258 136 l 258 649 l 85 649 q 64 662 74 654 q 40 683 54 669 q 38 713 38 700 q 44 750 38 732 q 63 779 50 768 l 372 779 q 397 765 392 768 q 415 749 403 761 l 415 136 l 583 136 q 632 92 614 124 m 221 861 l 376 1128 l 493 1128 l 276 856 l 221 861 z "},"ì":{"ha":746,"x_min":-6,"x_max":633,"o":"m 632 92 q 633 75 633 86 q 586 0 633 22 l 97 0 q 57 63 57 21 q 97 136 57 107 l 258 136 l 258 649 l 85 649 q 64 662 74 654 q 40 683 54 669 q 38 713 38 700 q 44 750 38 732 q 63 779 50 768 l 372 779 q 397 765 392 768 q 415 749 403 761 l 415 136 l 583 136 q 632 92 614 124 m 106 1196 l 272 940 l 206 940 l -6 1196 l 106 1196 z "},"î":{"ha":746,"x_min":93,"x_max":689,"o":"m 688 85 q 689 68 689 79 q 642 -7 689 15 l 153 -7 q 113 56 113 14 q 153 129 113 100 l 314 129 l 314 642 l 140 642 q 119 655 129 647 q 96 676 110 663 q 93 706 93 693 q 99 743 93 725 q 118 772 106 761 l 428 772 q 453 758 447 761 q 471 742 458 754 l 471 129 l 639 129 q 688 85 669 117 m 471 851 q 446 847 449 844 l 311 986 l 168 847 q 126 899 126 854 q 149 944 126 926 q 171 949 160 946 l 314 1086 l 454 949 q 480 928 471 943 q 489 896 489 914 q 471 851 489 869 z "},"ï":{"ha":746,"x_min":51,"x_max":689,"o":"m 676 888 q 661 863 672 874 q 631 839 650 851 l 508 839 q 476 850 492 839 q 451 879 460 861 l 451 1058 q 475 1088 460 1078 q 514 1104 490 1097 l 617 1104 q 676 1050 656 1090 l 676 888 m 276 888 q 261 863 272 874 q 231 839 250 851 l 108 839 q 76 850 92 839 q 51 879 60 861 l 51 1058 q 75 1088 60 1078 q 114 1104 90 1097 l 217 1104 q 276 1050 256 1090 l 276 888 m 688 85 q 689 68 689 79 q 642 -7 689 15 l 153 -7 q 113 56 113 14 q 153 129 113 100 l 314 129 l 314 642 l 140 642 q 119 655 129 647 q 96 676 110 663 q 93 706 93 693 q 99 743 93 725 q 118 772 106 761 l 428 772 q 453 758 447 761 q 471 742 458 754 l 471 129 l 639 129 q 688 85 669 117 z "},"ñ":{"ha":779,"x_min":11,"x_max":776,"o":"m 735 43 q 697 -8 726 11 q 668 -11 678 -11 q 638 -8 657 -11 q 606 20 621 6 q 589 54 590 35 l 589 606 l 540 640 q 495 650 519 646 q 450 654 471 654 q 415 642 432 650 q 382 626 397 633 l 179 496 l 179 43 q 167 24 172 31 q 144 3 161 18 q 103 -8 122 -8 q 63 3 85 -8 q 46 31 50 22 q 40 49 42 40 l 40 719 q 51 763 40 735 q 108 790 74 790 q 153 774 132 790 q 179 732 174 758 l 179 663 q 274 715 224 686 q 372 776 324 744 q 412 788 386 782 q 456 794 438 793 q 637 748 554 794 q 735 613 719 701 l 735 43 m 19 997 q 71 1047 29 1032 q 131 1069 113 1063 q 170 1079 150 1075 q 208 1083 190 1083 q 247 1080 218 1083 q 320 1038 276 1076 q 392 986 364 1000 q 443 961 421 972 q 490 950 465 950 q 522 956 496 950 q 602 1005 549 961 q 686 1053 656 1049 q 725 1057 717 1057 q 767 1043 757 1057 q 776 1019 776 1029 q 755 983 776 1003 q 713 947 733 964 q 624 886 669 904 q 517 868 578 868 q 414 876 454 868 q 339 903 374 885 q 275 952 304 921 q 229 986 246 983 q 201 989 213 989 q 149 975 181 989 q 106 958 117 961 q 73 939 94 954 q 40 924 51 924 q 22 933 33 924 q 11 958 11 942 q 19 997 11 969 z "},"ó":{"ha":803,"x_min":57,"x_max":768,"o":"m 768 242 q 685 92 750 158 q 535 0 621 26 l 285 0 l 214 19 q 115 106 156 54 q 57 222 74 157 l 57 603 q 115 694 79 654 q 201 774 150 735 l 263 800 q 372 801 299 800 q 483 803 446 803 q 540 797 511 803 q 606 779 568 790 l 689 719 l 740 649 l 768 526 l 768 242 m 626 256 l 621 567 l 567 621 q 517 644 540 636 q 450 660 494 651 l 279 646 q 228 613 250 636 q 193 556 206 589 q 196 387 193 478 q 201 236 199 296 l 242 174 l 315 146 l 535 149 q 591 190 568 163 q 626 256 614 217 m 394 889 l 550 1156 l 667 1156 l 450 883 l 394 889 z "},"ò":{"ha":803,"x_min":57,"x_max":768,"o":"m 768 242 q 685 92 750 158 q 535 0 621 26 l 285 0 l 214 19 q 115 106 156 54 q 57 222 74 157 l 57 603 q 115 694 79 654 q 201 774 150 735 l 263 800 q 372 801 299 800 q 483 803 446 803 q 540 797 511 803 q 606 779 568 790 l 689 719 l 740 649 l 768 526 l 768 242 m 626 256 l 621 567 l 567 621 q 517 644 540 636 q 450 660 494 651 l 279 646 q 228 613 250 636 q 193 556 206 589 q 196 387 193 478 q 201 236 199 296 l 242 174 l 315 146 l 535 149 q 591 190 568 163 q 626 256 614 217 m 286 1126 l 453 871 l 386 871 l 175 1126 l 286 1126 z "},"ô":{"ha":803,"x_min":57,"x_max":768,"o":"m 768 242 q 685 92 750 158 q 535 0 621 26 l 285 0 l 214 19 q 115 106 156 54 q 57 222 74 157 l 57 603 q 115 694 79 654 q 201 774 150 735 l 263 800 q 372 801 299 800 q 483 803 446 803 q 540 797 511 803 q 606 779 568 790 l 689 719 l 740 649 l 768 526 l 768 242 m 626 256 l 621 567 l 567 621 q 517 644 540 636 q 450 660 494 651 l 279 646 q 228 613 250 636 q 193 556 206 589 q 196 387 193 478 q 201 236 199 296 l 242 174 l 315 146 l 535 149 q 591 190 568 163 q 626 256 614 217 m 589 851 q 564 847 567 844 l 429 986 l 286 847 q 244 899 244 854 q 267 944 244 926 q 289 949 278 946 l 432 1086 l 572 949 q 598 928 589 943 q 607 896 607 914 q 589 851 607 869 z "},"ö":{"ha":803,"x_min":57,"x_max":768,"o":"m 704 888 q 689 863 700 874 q 658 839 678 851 l 536 839 q 503 850 519 839 q 479 879 488 861 l 479 1058 q 503 1088 488 1078 q 542 1104 518 1097 l 644 1104 q 704 1050 683 1090 l 704 888 m 304 888 q 289 863 300 874 q 258 839 278 851 l 136 839 q 103 850 119 839 q 79 879 88 861 l 79 1058 q 103 1088 88 1078 q 142 1104 118 1097 l 244 1104 q 304 1050 283 1090 l 304 888 m 768 242 q 685 92 750 158 q 535 0 621 26 l 285 0 l 214 19 q 115 106 156 54 q 57 222 74 157 l 57 603 q 115 694 79 654 q 201 774 150 735 l 263 800 q 372 801 299 800 q 483 803 446 803 q 540 797 511 803 q 606 779 568 790 l 689 719 l 740 649 l 768 526 l 768 242 m 626 256 l 621 567 l 567 621 q 517 644 540 636 q 450 660 494 651 l 279 646 q 228 613 250 636 q 193 556 206 589 q 196 387 193 478 q 201 236 199 296 l 242 174 l 315 146 l 535 149 q 591 190 568 163 q 626 256 614 217 z "},"õ":{"ha":803,"x_min":39,"x_max":804,"o":"m 768 242 q 685 92 750 158 q 535 0 621 26 l 285 0 l 214 19 q 115 106 156 54 q 57 222 74 157 l 57 603 q 115 694 79 654 q 201 774 150 735 l 263 800 q 372 801 299 800 q 483 803 446 803 q 540 797 511 803 q 606 779 568 790 l 689 719 l 740 649 l 768 526 l 768 242 m 626 256 l 621 567 l 567 621 q 517 644 540 636 q 450 660 494 651 l 279 646 q 228 613 250 636 q 193 556 206 589 q 196 387 193 478 q 201 236 199 296 l 242 174 l 315 146 l 535 149 q 591 190 568 163 q 626 256 614 217 m 47 990 q 99 1040 57 1025 q 159 1062 140 1056 q 198 1072 178 1068 q 236 1076 218 1076 q 275 1073 246 1076 q 348 1031 304 1069 q 420 979 392 993 q 471 954 449 965 q 518 943 493 943 q 550 949 524 943 q 630 998 576 954 q 714 1046 683 1042 q 753 1050 744 1050 q 794 1036 785 1050 q 804 1013 804 1022 q 783 976 804 996 q 740 940 761 957 q 651 879 697 897 q 544 861 606 861 q 442 869 482 861 q 367 896 401 878 q 303 945 332 914 q 257 979 274 976 q 229 982 240 982 q 176 968 208 982 q 133 951 144 954 q 101 932 122 947 q 68 917 79 917 q 50 926 61 917 q 39 951 39 935 q 47 990 39 963 z "},"ú":{"ha":786,"x_min":54,"x_max":743,"o":"m 743 43 q 737 26 740 32 q 722 3 733 19 q 685 -4 699 -4 q 608 63 625 -4 l 608 139 l 344 -6 l 250 -6 q 119 65 165 8 q 54 211 72 122 l 54 808 q 88 826 68 819 q 128 832 108 832 q 146 831 140 831 q 182 789 172 817 l 182 217 q 236 152 196 171 q 331 133 276 133 l 610 285 l 610 782 q 643 822 622 806 q 682 831 663 831 q 724 819 701 831 l 743 771 l 743 43 m 353 854 l 508 1121 l 625 1121 l 408 849 l 353 854 z "},"ù":{"ha":786,"x_min":54,"x_max":743,"o":"m 743 43 q 737 26 740 32 q 722 3 733 19 q 685 -4 699 -4 q 608 63 625 -4 l 608 139 l 344 -6 l 250 -6 q 119 65 165 8 q 54 211 72 122 l 54 808 q 88 826 68 819 q 128 832 108 832 q 146 831 140 831 q 182 789 172 817 l 182 217 q 236 152 196 171 q 331 133 276 133 l 610 285 l 610 782 q 643 822 622 806 q 682 831 663 831 q 724 819 701 831 l 743 771 l 743 43 m 293 1133 l 460 878 l 393 878 l 182 1133 l 293 1133 z "},"û":{"ha":786,"x_min":54,"x_max":743,"o":"m 743 43 q 737 26 740 32 q 722 3 733 19 q 685 -4 699 -4 q 608 63 625 -4 l 608 139 l 344 -6 l 250 -6 q 119 65 165 8 q 54 211 72 122 l 54 808 q 88 826 68 819 q 128 832 108 832 q 146 831 140 831 q 182 789 172 817 l 182 217 q 236 152 196 171 q 331 133 276 133 l 610 285 l 610 782 q 643 822 622 806 q 682 831 663 831 q 724 819 701 831 l 743 771 l 743 43 m 568 851 q 543 847 546 844 l 408 986 l 265 847 q 224 899 224 854 q 246 944 224 926 q 268 949 257 946 l 411 1086 l 551 949 q 577 928 568 943 q 586 896 586 914 q 568 851 586 869 z "},"ü":{"ha":786,"x_min":54,"x_max":743,"o":"m 697 929 q 682 904 693 915 q 651 881 671 893 l 529 881 q 497 892 513 881 q 472 921 481 903 l 472 1100 q 496 1129 481 1119 q 535 1146 511 1139 l 638 1146 q 697 1092 676 1132 l 697 929 m 297 929 q 282 904 293 915 q 251 881 271 893 l 129 881 q 97 892 113 881 q 72 921 81 903 l 72 1100 q 96 1129 81 1119 q 135 1146 111 1139 l 238 1146 q 297 1092 276 1132 l 297 929 m 743 43 q 737 26 740 32 q 722 3 733 19 q 685 -4 699 -4 q 608 63 625 -4 l 608 139 l 344 -6 l 250 -6 q 119 65 165 8 q 54 211 72 122 l 54 808 q 88 826 68 819 q 128 832 108 832 q 146 831 140 831 q 182 789 172 817 l 182 217 q 236 152 196 171 q 331 133 276 133 l 610 285 l 610 782 q 643 822 622 806 q 682 831 663 831 q 724 819 701 831 l 743 771 l 743 43 z "},"†":{"ha":1050,"x_min":161,"x_max":894,"o":"m 494 -144 l 411 678 l 517 1033 l 567 1033 l 644 672 l 561 -144 l 494 -144 m 161 700 l 894 700 l 894 594 l 161 594 l 161 700 z "},"°":{"ha":567,"x_min":131,"x_max":415,"o":"m 415 821 q 383 763 408 789 q 322 725 357 738 l 222 725 l 194 732 q 131 814 143 765 l 131 965 q 189 1036 147 1004 l 213 1044 q 249 1047 233 1046 q 274 1047 264 1047 q 301 1046 292 1047 l 351 1038 l 385 1013 l 404 986 l 415 938 l 415 821 m 358 826 l 357 951 l 335 975 q 289 990 314 986 l 219 985 q 185 947 197 976 q 185 885 185 915 q 189 819 185 856 l 206 796 l 235 785 l 322 786 q 342 797 333 790 q 358 826 350 804 z "},"¢":{"ha":828,"x_min":36,"x_max":742,"o":"m 365 6 l 333 -94 q 267 -131 310 -131 q 224 -118 250 -131 q 189 -67 197 -106 l 232 71 l 53 256 q 36 401 36 331 q 58 564 36 481 q 274 788 165 679 q 333 808 304 804 l 460 808 l 500 939 q 532 973 511 963 q 579 983 553 983 q 630 965 610 983 q 656 917 650 946 l 621 808 l 681 808 q 738 757 715 792 q 729 686 738 724 q 653 654 694 658 l 572 654 l 411 151 l 683 151 q 740 114 718 144 q 742 88 742 106 q 737 53 742 67 q 718 25 732 39 l 685 6 l 365 6 m 275 210 l 413 654 l 333 654 l 169 510 q 151 410 151 453 q 155 363 151 383 q 169 310 158 342 l 275 210 z "},"£":{"ha":808,"x_min":54,"x_max":761,"o":"m 697 150 l 356 0 l 54 0 l 326 458 l 325 1106 q 342 1132 325 1124 q 385 1143 360 1140 q 435 1137 410 1147 q 461 1106 461 1126 l 461 428 l 228 100 l 700 304 q 745 291 729 307 q 761 247 761 275 q 745 190 761 217 q 697 150 729 164 m 232 679 l 604 679 l 604 613 l 232 613 l 232 679 z "},"§":{"ha":911,"x_min":60,"x_max":883,"o":"m 293 800 l 256 817 q 211 873 225 840 q 197 944 197 906 q 239 1067 197 1013 q 347 1128 281 1122 l 743 1128 q 826 1086 790 1115 q 857 1014 861 1057 q 800 943 844 965 l 765 943 l 681 1003 l 379 1003 l 350 990 q 340 964 343 975 q 339 936 336 953 q 355 910 353 913 q 369 900 357 907 l 783 735 q 876 618 844 685 q 883 550 883 579 q 858 440 883 488 q 776 360 833 392 l 732 338 l 760 290 q 767 222 767 251 q 742 112 767 160 q 671 38 717 64 q 586 0 625 13 l 208 0 q 133 28 164 13 q 74 74 101 44 q 60 126 60 97 q 78 178 60 158 q 133 196 97 199 q 192 169 156 196 q 239 139 228 143 l 578 139 q 621 176 603 153 q 631 203 628 196 q 635 222 633 211 q 578 293 622 267 l 139 489 q 94 545 108 513 q 81 617 81 578 q 122 740 81 685 q 231 800 164 794 l 293 800 m 611 429 l 694 467 q 738 504 719 481 q 747 531 744 524 q 751 550 750 539 q 694 621 739 594 l 601 663 l 564 675 l 263 675 l 233 663 q 223 636 226 647 q 222 608 219 625 q 238 582 236 585 q 253 572 240 579 l 611 429 z "},"•":{"ha":803,"x_min":214,"x_max":533,"o":"m 533 501 q 497 436 525 464 q 428 393 468 408 l 315 393 l 285 401 q 239 442 257 421 q 214 493 221 464 l 214 664 q 239 707 225 690 q 278 743 253 724 l 306 753 q 356 753 331 753 q 406 754 381 753 l 461 746 l 499 717 l 521 686 l 533 632 l 533 501 z "},"¶":{"ha":825,"x_min":8,"x_max":714,"o":"m 436 408 l 436 728 l 183 728 q 118 697 139 728 l 118 435 l 136 415 q 172 408 154 408 l 436 408 m 615 753 l 549 757 l 550 -8 q 538 -26 550 -14 q 489 -36 511 -36 q 436 -10 451 -36 l 436 299 l 133 299 q 8 408 32 313 l 8 736 q 71 813 35 786 q 158 840 107 840 l 714 846 l 714 -37 l 665 -43 l 615 -11 l 615 753 z "},"ß":{"ha":867,"x_min":111,"x_max":821,"o":"m 417 494 q 375 519 392 499 q 358 564 358 540 q 358 576 358 569 q 367 601 361 582 q 411 628 374 619 l 521 610 q 539 608 528 608 q 641 674 600 608 q 682 813 682 740 q 638 922 682 874 q 526 969 594 969 l 244 972 l 244 33 q 226 5 244 15 q 186 -6 207 -6 q 111 28 135 -6 l 111 1118 l 561 1117 q 735 1021 649 1117 q 821 819 821 925 q 790 660 821 731 q 692 561 760 589 q 789 460 757 526 q 821 313 821 393 q 763 98 821 196 q 603 0 706 0 l 528 -6 l 450 0 l 339 106 q 329 146 329 131 q 345 184 329 168 q 386 200 361 200 q 428 183 411 200 l 489 128 l 550 125 q 642 180 611 125 q 674 313 674 235 q 640 428 674 382 q 546 481 606 475 l 417 494 z "},"®":{"ha":1097,"x_min":43,"x_max":1076,"o":"m 1076 513 q 916 160 1076 301 q 535 19 756 19 q 184 180 325 19 q 43 560 43 340 q 203 912 43 769 q 583 1054 364 1054 q 935 893 794 1054 q 1076 513 1076 732 m 1007 517 q 883 849 1007 708 q 574 990 758 990 q 241 866 382 990 q 100 557 100 742 q 224 224 100 367 q 532 82 349 82 q 865 208 722 82 q 1007 517 1007 333 m 768 672 q 745 587 763 619 q 682 540 728 554 l 588 540 l 767 247 q 771 222 771 235 q 760 193 771 204 q 731 182 749 182 q 711 185 725 182 l 696 203 l 494 539 l 432 539 l 432 206 q 421 179 432 189 q 393 169 410 169 q 354 206 354 169 l 354 811 l 367 822 l 681 822 q 749 767 729 804 q 768 672 768 729 m 678 626 q 688 676 688 651 q 681 717 688 699 q 656 746 674 736 l 432 744 l 432 611 l 660 611 q 678 626 671 618 z "},"©":{"ha":1094,"x_min":18,"x_max":1032,"o":"m 1032 543 q 899 162 1032 324 q 561 0 767 0 q 181 134 343 0 q 18 471 18 268 q 151 853 18 690 q 489 1015 283 1015 q 869 881 707 1015 q 1032 543 1032 747 m 943 532 q 808 814 943 703 q 490 925 672 925 q 208 790 319 925 q 97 472 97 654 q 233 192 97 303 q 550 81 368 81 q 831 215 719 81 q 943 532 943 350 m 669 251 q 692 237 683 247 q 700 215 700 226 q 668 175 700 186 l 469 175 q 430 190 447 175 q 403 225 413 204 l 290 442 q 274 501 274 474 q 286 554 274 526 l 383 761 q 411 807 399 792 q 446 822 424 822 l 664 824 q 680 812 674 824 q 686 783 686 800 q 678 753 686 765 q 658 744 671 740 l 463 744 q 397 604 432 679 q 363 518 363 529 q 358 499 358 507 q 363 482 358 490 l 481 251 l 669 251 z "},"™":{"ha":1044,"x_min":139,"x_max":874,"o":"m 486 957 q 454 935 478 935 q 418 954 433 935 l 418 996 l 344 996 l 344 542 l 335 521 q 310 515 324 515 q 276 543 282 515 l 276 996 l 207 996 l 207 951 q 172 931 194 931 q 139 957 147 931 l 139 1068 l 486 1068 l 486 957 m 874 529 q 839 503 864 500 q 803 536 808 503 l 803 967 l 711 829 q 690 817 703 819 q 667 828 678 818 l 583 967 l 583 536 q 574 512 583 519 q 551 504 565 504 q 528 514 539 504 q 517 539 517 524 l 517 1060 l 522 1069 l 594 1069 l 693 931 l 783 1069 l 861 1069 l 874 1056 l 874 529 z "},"´":{"ha":439,"x_min":61,"x_max":333,"o":"m 61 778 l 217 1044 l 333 1044 l 117 772 l 61 778 z "},"¨":{"ha":783,"x_min":51,"x_max":676,"o":"m 276 888 q 261 863 272 874 q 231 839 250 851 l 108 839 q 76 850 92 839 q 51 879 60 861 l 51 1058 q 75 1088 60 1078 q 114 1104 90 1097 l 217 1104 q 276 1050 256 1090 l 276 888 m 676 888 q 661 863 672 874 q 631 839 650 851 l 508 839 q 476 850 492 839 q 451 879 460 861 l 451 1058 q 475 1088 460 1078 q 514 1104 490 1097 l 617 1104 q 676 1050 656 1090 l 676 888 z "},"≠":{"ha":961,"x_min":89,"x_max":772,"o":"m 419 604 l 143 604 q 103 626 117 607 q 89 669 89 644 q 97 708 89 689 q 119 742 104 726 q 260 744 171 743 q 379 744 349 744 l 513 744 l 649 947 q 681 967 668 964 q 699 969 693 969 q 738 952 722 969 q 754 908 754 935 l 646 743 l 728 743 q 761 722 750 742 q 772 675 772 701 q 759 626 772 647 q 722 604 746 604 l 554 604 l 451 453 l 728 451 q 761 430 750 450 q 772 383 772 410 q 759 334 772 356 q 722 313 746 313 l 356 313 l 215 111 q 182 106 200 106 q 151 128 163 110 q 139 168 139 147 q 142 189 139 175 l 224 313 l 143 313 q 103 334 117 315 q 89 378 89 353 q 97 416 89 397 q 119 450 104 435 q 182 452 140 451 q 243 453 224 453 l 318 453 l 419 604 z "},"Æ":{"ha":875,"x_min":-6,"x_max":840,"o":"m 351 767 l 235 386 l 354 389 l 351 767 m 775 1096 q 823 1065 806 1090 q 840 1007 840 1039 q 827 964 840 981 q 786 947 814 947 l 458 947 l 458 597 l 665 597 q 715 573 696 594 q 733 525 733 551 q 720 485 733 503 q 681 461 707 467 l 458 461 l 458 110 l 754 110 q 801 90 783 110 q 818 42 818 69 q 804 0 818 18 q 764 -21 790 -18 l 326 -21 l 326 243 l 200 240 l 113 21 q 40 -11 76 -11 q -6 47 -6 -11 q 4 107 -6 74 l 303 1107 q 351 1113 311 1111 q 404 1114 392 1114 q 627 1107 503 1114 q 775 1096 751 1100 z "},"Ø":{"ha":896,"x_min":14,"x_max":868,"o":"m 604 740 l 332 317 l 417 168 q 453 157 439 157 l 485 176 q 569 336 525 249 q 647 504 613 424 l 664 578 l 647 660 l 604 740 m 279 419 l 549 846 l 471 993 q 452 1002 463 997 q 433 1007 442 1007 q 393 979 408 997 q 307 821 346 897 q 235 663 268 744 l 219 586 l 249 483 l 279 419 m 192 281 l 103 461 q 86 581 86 522 q 103 700 86 638 l 282 1069 q 431 1165 364 1165 q 497 1152 465 1168 q 569 1101 528 1136 l 635 982 l 743 1153 l 868 1153 l 693 878 l 781 719 q 794 608 794 665 q 772 464 794 542 l 576 65 q 509 21 546 43 q 438 -1 472 -1 q 356 24 396 -1 q 286 89 315 49 l 243 176 l 125 -7 l 14 0 l 192 281 z "},"∞":{"ha":944,"x_min":10,"x_max":922,"o":"m 483 356 q 428 322 458 339 q 374 306 397 306 l 92 306 q 33 344 56 315 q 10 410 10 372 l 10 739 l 28 785 q 74 819 47 806 l 374 819 q 424 801 393 815 q 483 772 454 788 q 524 809 508 796 q 557 825 539 822 l 860 825 q 883 810 871 819 q 904 790 894 801 l 922 746 l 922 415 q 899 351 922 379 q 839 313 876 322 l 557 313 q 522 319 532 313 q 483 356 513 326 m 825 428 l 825 715 l 814 719 l 574 719 l 564 674 l 564 438 q 572 415 563 425 l 576 413 l 808 413 l 825 428 m 367 432 l 367 667 l 357 713 l 118 713 l 107 710 l 107 422 l 124 407 l 356 407 l 360 410 q 367 432 369 417 z "},"±":{"ha":914,"x_min":65,"x_max":789,"o":"m 351 307 l 351 544 l 129 544 q 83 569 100 547 q 65 617 65 590 q 124 683 65 675 l 368 683 l 368 906 q 397 944 379 931 q 439 957 414 957 q 472 945 458 957 q 496 911 485 933 l 496 672 l 731 676 q 763 647 746 668 q 786 618 781 625 q 781 573 789 594 q 753 540 772 551 q 661 538 746 539 q 490 535 576 536 l 490 307 l 693 306 q 726 284 715 304 q 738 238 738 264 q 724 188 738 210 q 688 167 711 167 l 178 167 q 138 188 151 169 q 124 232 124 207 q 131 270 124 251 q 154 304 139 289 q 278 307 160 307 l 351 307 z "},"≤":{"ha":833,"x_min":63,"x_max":776,"o":"m 765 340 q 776 279 776 310 q 763 215 776 243 q 743 214 757 214 q 686 224 711 214 l 92 511 q 63 596 63 549 q 81 671 63 633 l 638 1069 q 662 1076 646 1072 q 686 1081 678 1081 q 723 1067 710 1076 q 742 1050 736 1058 q 754 1024 747 1042 q 753 992 754 1003 q 743 964 751 982 l 268 639 l 242 611 l 263 579 l 765 340 m 163 138 q 135 144 149 144 q 89 128 110 144 q 68 90 68 113 q 85 38 68 60 q 129 15 101 15 l 707 15 q 751 76 751 29 q 731 122 751 103 q 682 142 710 142 q 663 138 674 142 l 163 138 z "},"≥":{"ha":833,"x_min":26,"x_max":807,"o":"m 769 696 q 778 650 778 668 q 773 618 778 635 q 765 589 768 601 l 722 549 l 719 551 l 158 218 q 144 214 151 215 q 131 213 138 213 q 97 221 118 213 q 65 233 76 229 q 57 258 61 243 q 53 283 53 274 q 76 338 53 313 q 354 490 210 410 q 600 646 499 571 l 571 685 l 74 967 q 57 1011 57 988 q 90 1078 57 1051 l 125 1089 q 151 1083 142 1086 q 188 1069 160 1081 l 751 731 l 769 696 m 121 138 q 93 144 107 144 q 47 128 68 144 q 26 90 26 113 q 43 38 26 60 q 88 15 60 15 l 763 15 q 807 76 807 29 q 786 122 807 103 q 738 142 765 142 q 718 138 729 142 l 121 138 z "},"¥":{"ha":783,"x_min":67,"x_max":760,"o":"m 760 885 l 469 510 l 469 25 q 406 -11 453 -11 q 357 1 378 -11 q 328 35 336 13 l 328 515 l 68 871 l 68 1061 q 131 1097 83 1097 q 199 1061 178 1097 l 199 914 l 404 651 l 418 654 l 624 914 l 624 1053 q 697 1089 653 1089 q 760 1058 735 1089 l 760 885 m 156 439 l 633 439 l 633 333 l 156 333 l 156 439 m 67 739 l 239 739 l 250 661 l 67 661 l 67 739 m 567 739 l 739 739 l 739 661 l 567 661 l 567 739 z "},"µ":{"ha":928,"x_min":-97,"x_max":867,"o":"m 97 50 l -28 -144 l -97 -117 l -64 -50 q -29 15 -53 -28 q 11 94 -6 58 q 46 167 28 131 q 64 222 64 203 l 188 808 q 226 826 204 821 q 267 832 247 832 q 285 831 279 831 q 310 789 310 817 l 157 217 q 192 151 157 169 q 283 133 228 133 l 603 285 l 736 782 q 781 822 756 806 q 821 831 801 831 q 860 819 842 831 q 863 798 861 814 q 867 771 865 782 l 672 43 q 660 25 669 36 q 640 3 650 14 q 601 -4 617 -4 q 542 63 542 -4 l 563 139 l 260 -6 l 97 50 z "},"∂":{"ha":819,"x_min":-21,"x_max":694,"o":"m 693 38 l 653 0 l 13 0 l -18 28 l -21 447 l 10 481 q 36 490 26 488 q 56 493 46 493 l 554 493 l 556 717 l 282 953 q 269 979 282 964 q 253 986 264 982 q 236 990 242 990 q 219 1061 219 1024 q 237 1092 233 1088 q 253 1101 240 1097 q 301 1108 275 1104 q 342 1115 328 1113 l 342 1107 q 421 1056 403 1115 l 694 811 l 693 38 m 542 146 l 542 328 l 519 347 l 489 353 l 164 353 l 138 347 l 118 333 l 118 144 q 140 122 126 131 l 494 122 q 542 146 529 114 z "},"Σ":{"ha":840,"x_min":4,"x_max":783,"o":"m 535 665 q 587 626 568 663 q 606 544 606 590 q 593 482 606 507 q 556 451 581 457 l 222 144 l 719 144 q 766 122 749 144 q 783 69 783 99 q 770 22 783 42 q 729 0 757 3 l 10 0 l 11 139 l 389 511 l 389 606 l 17 978 l 4 1119 l 697 1119 q 745 1095 726 1119 q 764 1040 764 1071 q 754 1001 764 1019 q 710 982 744 982 l 222 982 l 535 665 z "},"∏":{"ha":865,"x_min":24,"x_max":769,"o":"m 294 -11 l 144 -11 l 142 976 l 83 971 q 38 994 53 974 q 24 1043 24 1015 q 35 1088 24 1069 q 69 1106 47 1106 l 700 1106 q 752 1081 735 1100 q 769 1033 769 1061 q 735 971 769 993 l 678 972 l 678 -6 l 544 -6 l 544 978 l 296 976 l 294 -11 z "},"π":{"ha":961,"x_min":63,"x_max":819,"o":"m 114 631 l 610 699 q 632 704 619 704 q 678 683 657 704 q 694 638 699 663 q 672 599 692 613 q 628 589 653 585 l 549 582 l 560 215 l 719 350 q 763 368 733 368 q 808 349 796 368 q 819 315 819 329 q 793 265 819 285 l 488 32 l 438 564 l 236 533 l 213 21 l 108 21 l 151 528 q 122 519 139 519 q 71 544 79 519 q 63 574 63 569 q 78 613 63 594 q 114 631 93 631 z "},"∫":{"ha":900,"x_min":17,"x_max":856,"o":"m 497 6 q 324 -160 450 -128 l 68 -160 q 40 -141 50 -151 q 25 -121 31 -131 q 17 -106 19 -111 q 61 -19 17 -50 l 318 -19 l 356 8 q 367 33 361 21 l 364 933 q 433 1041 388 1000 q 549 1099 479 1082 l 804 1099 q 833 1080 822 1090 q 847 1061 843 1069 q 856 1044 851 1053 q 811 958 856 989 l 554 958 l 511 931 q 500 906 506 918 l 497 6 z "},"ª":{"ha":489,"x_min":53,"x_max":401,"o":"m 400 690 q 396 667 401 682 q 379 661 385 661 q 353 665 368 657 l 333 692 q 285 663 313 667 l 133 663 q 79 692 101 668 q 53 749 57 715 l 53 819 q 54 840 53 831 q 65 868 56 849 q 82 884 72 875 q 108 900 92 893 l 329 900 l 329 960 q 292 988 317 988 l 149 988 q 122 1028 122 996 q 125 1044 122 1033 q 150 1058 135 1054 l 321 1058 q 372 1024 351 1049 q 400 967 393 999 l 400 690 m 338 761 l 338 808 l 329 828 l 311 839 l 153 839 q 119 813 128 832 l 119 767 q 128 747 119 756 q 149 735 136 739 l 308 735 q 338 761 329 742 m 72 594 l 394 594 l 394 528 l 72 528 l 72 594 z "},"º":{"ha":528,"x_min":83,"x_max":439,"o":"m 439 757 q 399 683 429 715 q 322 636 368 651 l 197 636 l 163 646 q 112 690 132 665 q 83 747 92 714 l 83 938 q 113 984 94 963 q 156 1025 131 1006 l 186 1036 q 234 1036 210 1036 q 283 1038 258 1036 l 297 1038 l 358 1028 l 400 996 l 425 963 l 439 901 l 439 757 m 368 764 l 365 919 l 339 949 q 315 960 325 957 q 281 968 304 964 l 194 961 q 170 944 182 957 q 151 914 158 931 q 153 835 151 875 q 156 754 154 794 l 176 725 l 213 711 l 322 713 q 368 764 356 725 m 94 561 l 428 561 l 428 494 l 94 494 l 94 561 z "},"Ω":{"ha":789,"x_min":7,"x_max":729,"o":"m 722 38 q 710 1 729 15 q 661 -12 692 -12 q 611 1 633 -12 q 581 43 589 15 l 431 611 l 581 906 q 577 922 585 913 q 563 939 569 931 q 350 975 468 975 q 256 968 300 975 q 168 944 211 961 q 153 926 158 933 q 153 911 149 918 l 313 618 l 153 54 q 117 6 143 24 q 60 -12 90 -12 q 22 -1 36 -12 q 7 35 7 11 q 11 57 7 44 l 174 604 l 11 942 q 75 1041 36 1001 q 171 1090 114 1081 l 581 1090 q 674 1024 638 1068 q 722 917 710 979 l 535 597 l 722 38 z "},"æ":{"ha":1375,"x_min":35,"x_max":1303,"o":"m 1151 419 l 1151 576 q 1021 639 1100 639 l 836 639 q 807 628 825 636 q 779 617 789 621 q 756 591 763 599 q 742 568 750 583 l 742 419 l 1151 419 m 597 310 l 586 331 q 550 353 574 343 l 233 353 q 168 299 183 339 l 168 208 q 183 168 168 183 q 225 144 199 153 l 546 144 q 601 192 582 156 l 597 218 l 597 310 m 682 710 q 735 748 707 732 q 801 779 764 764 l 1081 779 q 1122 767 1107 772 q 1164 750 1136 761 q 1271 653 1219 707 q 1288 605 1279 633 q 1300 554 1296 576 l 1300 332 q 1265 300 1281 311 q 1229 289 1250 289 l 742 289 l 742 207 q 785 157 757 178 q 847 129 814 136 l 1257 129 q 1303 65 1303 110 q 1260 -7 1303 21 l 788 -7 q 759 3 776 -3 q 725 21 742 10 l 719 8 q 703 1 714 6 q 686 -3 692 -3 q 672 -6 678 -6 q 635 6 660 -6 l 594 57 q 499 0 553 8 l 196 0 q 88 58 132 11 q 35 171 43 106 l 35 313 q 41 359 35 338 q 60 410 47 381 q 101 450 83 435 q 146 475 119 465 l 586 475 l 586 594 q 556 633 575 618 q 513 649 536 649 l 225 649 q 168 715 168 667 q 172 742 168 726 q 221 771 193 763 l 563 771 q 643 743 622 751 q 682 710 664 735 z "},"ø":{"ha":875,"x_min":57,"x_max":768,"o":"m 768 242 q 685 92 750 158 q 535 0 621 26 l 285 0 l 214 19 l 182 40 l 157 6 q 117 -3 138 -3 q 77 26 92 3 q 63 76 63 49 q 65 103 63 94 l 90 139 q 57 222 69 176 l 57 603 q 115 694 79 654 q 201 774 150 735 l 263 800 q 372 801 299 800 q 483 803 446 803 q 520 799 503 803 q 557 792 538 796 l 603 856 q 622 872 613 865 q 644 880 631 878 q 665 882 657 882 q 715 860 696 882 q 733 807 733 839 l 679 725 l 689 719 l 740 649 l 768 526 l 768 242 m 461 657 l 450 660 l 279 646 q 228 613 250 636 q 193 556 206 589 q 194 422 193 489 q 197 289 196 356 l 461 657 m 626 256 l 621 567 l 592 596 q 517 493 556 546 q 422 366 478 440 q 271 163 367 292 l 315 146 l 535 149 q 591 190 568 163 q 626 256 614 217 z "},"¿":{"ha":803,"x_min":1,"x_max":722,"o":"m 601 1146 q 579 1092 601 1114 q 525 1069 557 1069 q 471 1092 493 1069 q 449 1146 449 1114 q 471 1200 449 1178 q 525 1222 493 1222 q 579 1200 557 1222 q 601 1146 601 1178 m 718 508 l 246 118 q 208 110 225 110 l 181 121 l 1 289 l 24 468 l 460 821 l 460 946 q 515 974 483 974 q 579 932 554 974 l 579 753 l 149 400 l 138 354 l 189 297 l 263 297 l 625 604 q 667 613 646 613 q 708 585 693 607 q 722 536 722 564 q 718 508 722 521 z "},"¡":{"ha":467,"x_min":106,"x_max":315,"o":"m 315 946 q 256 892 294 907 l 178 892 q 135 912 147 901 q 118 939 124 922 l 118 1050 q 175 1090 139 1090 l 267 1090 q 315 1042 299 1075 l 315 946 m 310 43 q 283 -5 313 10 q 204 -19 253 -19 q 140 6 174 -14 q 107 46 106 25 l 147 613 q 160 654 154 640 q 183 668 165 668 q 206 661 192 668 q 240 650 222 671 q 267 618 258 629 l 310 43 z "},"¬":{"ha":3856,"x_min":278,"x_max":3432,"o":"m 3432 347 q 3319 56 3432 149 q 3006 -36 3207 -36 q 2878 -17 2949 -36 q 2808 44 2808 1 q 2824 85 2808 71 q 2864 100 2840 100 q 2914 86 2889 100 q 2951 49 2939 72 q 2982 15 2960 28 q 3035 -6 3004 1 q 3273 78 3192 -6 q 3354 333 3354 163 q 3358 419 3358 374 q 3260 792 3358 624 q 2942 988 3163 960 q 2620 1028 2722 1017 q 2432 1040 2518 1040 q 2246 1023 2356 1040 q 1994 983 2136 1006 q 1631 808 1853 960 q 1243 457 1408 657 q 1060 100 1078 257 q 1106 9 1089 58 q 1124 -86 1124 -40 q 1119 -138 1124 -118 q 1093 -158 1114 -158 q 1032 -92 1054 -158 q 1010 28 1010 -25 l 1010 44 q 867 170 925 114 q 805 266 810 226 q 799 325 800 306 q 797 369 797 344 q 801 417 797 396 q 656 301 740 364 q 484 190 571 238 q 342 142 397 142 q 297 157 317 142 q 278 197 278 172 q 313 373 278 267 q 379 522 347 479 l 468 644 q 488 669 482 661 q 497 686 494 678 q 403 715 435 686 q 363 808 372 743 q 383 806 374 806 q 403 806 392 806 q 555 849 478 806 q 697 957 632 892 q 707 965 700 965 q 717 949 713 965 q 722 918 722 932 q 653 756 722 810 q 539 682 596 718 q 462 569 526 658 q 397 411 397 479 q 418 303 397 368 q 468 239 439 239 q 624 315 514 239 q 824 454 735 392 q 893 621 863 546 q 956 735 924 696 q 1002 787 988 774 q 1042 800 1017 800 q 1069 790 1057 800 q 1081 763 1081 779 q 1036 660 1081 708 q 929 572 992 613 q 901 481 919 554 q 883 383 883 408 q 927 288 883 351 q 1025 154 971 225 q 1221 518 1061 326 q 1582 849 1381 710 q 1955 1023 1783 988 q 2253 1076 2126 1058 q 2524 1094 2381 1094 q 2741 1085 2629 1094 q 3015 1049 2853 1075 q 3304 862 3176 1022 q 3432 347 3432 701 m 3043 786 q 2962 512 3043 701 q 2819 214 2881 322 q 2710 47 2757 106 q 2599 -11 2663 -11 q 2490 24 2544 -11 q 2435 113 2435 60 q 2456 183 2435 154 q 2507 240 2478 213 q 2572 168 2549 189 q 2638 147 2596 147 q 2835 328 2750 147 q 2919 636 2919 508 q 2878 734 2919 711 q 2761 757 2838 757 q 2629 681 2640 757 q 2603 596 2618 604 l 2585 643 q 2586 675 2586 653 q 2585 709 2586 692 q 2585 746 2585 726 q 2618 853 2585 814 q 2753 893 2651 893 q 2958 875 2874 893 q 3043 786 3043 857 m 2310 396 q 2256 239 2310 314 q 2065 60 2201 164 q 1686 -43 1929 -43 q 1464 6 1560 -43 q 1368 169 1368 56 q 1419 297 1368 240 q 1543 372 1469 353 l 1547 360 q 1462 312 1493 339 q 1426 232 1431 285 q 1539 87 1426 125 q 1792 49 1651 49 q 2092 122 1994 49 q 2213 228 2190 196 q 2235 297 2235 260 q 2188 372 2235 356 q 2072 388 2142 388 q 1960 381 2032 388 q 1881 375 1888 375 q 1706 421 1778 375 q 1633 567 1633 467 q 1760 792 1633 710 q 2040 874 1888 874 q 2119 868 2093 874 q 2169 835 2146 863 q 2192 840 2181 840 q 2228 801 2207 840 q 2256 760 2250 763 q 2261 749 2261 758 q 2220 693 2256 732 q 2181 647 2185 654 q 2167 632 2176 632 q 2138 649 2157 632 q 2107 669 2119 667 q 2081 677 2094 672 q 2068 696 2068 682 q 2093 746 2068 714 q 2118 800 2118 778 q 2092 839 2118 828 q 2033 850 2067 850 q 1817 792 1921 850 q 1714 629 1714 735 q 1763 549 1714 569 q 1881 528 1813 528 q 1977 531 1918 528 q 2044 535 2036 535 q 2237 511 2164 535 q 2310 396 2310 488 m 2340 29 q 2276 -7 2332 -7 q 2235 0 2261 -7 q 2190 28 2208 7 q 2178 75 2171 50 q 2238 110 2188 110 q 2282 102 2256 110 q 2328 74 2308 94 q 2340 29 2347 54 m 1364 21 q 1296 -17 1356 -17 q 1253 -10 1279 -17 q 1208 19 1228 -4 q 1194 69 1188 43 q 1261 106 1206 106 q 1304 99 1278 106 q 1351 69 1331 92 q 1364 21 1371 46 z "},"√":{"ha":1090,"x_min":-37,"x_max":1069,"o":"m -14 278 l 132 424 l 299 229 l 736 1104 l 993 1104 q 1047 1082 1025 1104 q 1069 1028 1069 1060 q 1054 979 1069 1000 q 1014 958 1039 958 l 813 958 l 313 -7 l 104 250 l 28 167 q -24 188 -10 167 q -37 228 -37 208 q -14 278 -37 258 z "},"ƒ":{"ha":811,"x_min":-147,"x_max":711,"o":"m 711 1039 q 667 953 711 983 l 410 953 l 367 925 l 356 900 l 349 571 l 522 571 q 553 538 542 561 q 560 493 564 515 q 533 451 551 472 l 492 444 l 349 444 l 344 -57 q 275 -165 321 -124 q 160 -222 229 -206 l -96 -222 q -124 -203 -114 -214 q -140 -183 -135 -193 q -147 -168 -144 -174 q -103 -82 -147 -112 l 154 -82 l 197 -54 l 208 -29 l 213 444 l 113 444 q 60 510 60 461 q 67 544 60 524 l 90 571 l 213 571 l 219 928 q 289 1035 243 994 q 404 1093 335 1076 l 660 1093 q 688 1074 678 1085 q 703 1056 699 1064 q 711 1039 707 1047 z "},"≈":{"ha":1050,"x_min":29,"x_max":996,"o":"m 39 722 q 103 786 51 768 q 194 817 156 804 q 275 831 233 831 q 294 829 283 831 q 332 825 306 828 q 412 776 358 822 q 494 717 465 729 q 569 678 540 692 q 628 664 597 664 q 674 671 646 664 q 767 733 701 678 q 868 792 833 788 q 922 799 903 796 q 972 781 958 799 q 985 750 985 764 q 958 706 985 729 q 906 661 931 682 q 796 583 851 606 q 661 561 740 561 q 533 573 586 561 q 438 606 479 585 q 360 667 396 628 q 302 709 324 706 q 267 713 281 713 q 199 694 239 713 q 144 672 160 676 q 103 649 129 668 q 64 631 76 631 q 42 642 56 631 q 29 675 29 653 q 33 700 29 686 q 39 722 38 714 m 50 439 q 115 503 63 485 q 206 534 167 521 q 286 547 244 547 q 306 546 294 547 q 343 542 317 544 q 423 492 369 539 q 506 433 476 446 q 580 394 551 408 q 639 381 608 381 q 685 388 657 381 q 778 449 713 394 q 879 508 844 504 q 933 515 914 513 q 983 498 969 515 q 996 467 996 481 q 969 422 996 446 q 917 378 942 399 q 807 300 863 322 q 672 278 751 278 q 544 290 597 278 q 449 323 490 301 q 371 383 407 344 q 313 426 335 422 q 278 429 292 429 q 210 411 250 429 q 156 389 171 393 q 114 366 140 385 q 75 347 88 347 q 53 358 67 347 q 40 392 40 369 q 44 417 40 403 q 50 439 49 431 z "},"∆":{"ha":1050,"x_min":22,"x_max":972,"o":"m 972 0 l 22 0 l 456 1072 l 972 0 m 763 125 l 453 794 l 194 125 l 763 125 z "},"«":{"ha":1044,"x_min":44,"x_max":976,"o":"m 607 346 q 617 296 617 322 q 606 246 617 271 l 590 246 q 544 253 563 246 l 68 483 q 44 551 44 513 q 60 611 44 578 l 506 929 q 544 939 535 939 q 579 925 565 933 q 599 893 592 913 q 590 844 599 869 l 210 585 l 189 563 l 206 538 l 607 346 m 968 364 q 976 315 976 340 q 965 264 976 289 q 904 271 936 260 l 429 500 q 406 568 406 529 q 419 628 406 600 l 865 947 q 904 956 890 956 q 939 943 922 953 q 958 911 951 931 q 957 885 958 897 q 950 863 956 874 l 569 603 l 549 581 l 565 556 l 968 364 z "},"»":{"ha":1044,"x_min":54,"x_max":986,"o":"m 611 611 q 625 551 625 582 q 601 483 625 513 l 126 254 q 81 246 106 246 q 65 247 71 246 q 54 300 54 274 q 63 347 54 324 l 465 539 l 482 564 l 461 586 l 81 846 q 74 868 75 857 q 72 894 72 879 q 92 926 79 914 q 126 939 108 936 q 165 931 140 939 l 611 611 m 971 594 q 986 533 986 561 q 963 467 986 499 l 486 236 q 459 231 476 232 q 425 229 442 229 q 414 281 414 256 q 416 301 414 290 q 424 329 418 313 l 825 521 l 842 546 l 821 568 l 440 828 q 432 876 432 853 q 451 908 439 896 q 486 922 465 917 q 508 918 496 922 q 525 913 519 914 l 971 594 z "},"…":{"ha":1228,"x_min":163,"x_max":1115,"o":"m 388 49 q 372 24 383 35 q 342 0 361 13 l 219 0 q 187 11 203 0 q 163 40 171 22 l 163 219 q 186 249 171 239 q 225 265 201 258 l 328 265 q 388 211 367 251 l 388 49 m 1115 43 q 1100 18 1111 29 q 1069 -6 1089 7 l 947 -6 q 915 6 931 -6 q 890 35 899 17 l 890 214 q 914 243 899 233 q 953 260 929 253 l 1056 260 q 1115 206 1094 246 l 1115 43 m 754 49 q 739 24 750 35 q 708 0 728 13 l 586 0 q 553 11 569 0 q 529 40 538 22 l 529 219 q 553 249 538 239 q 592 265 568 258 l 694 265 q 754 211 733 251 l 754 49 z "}," ":{"ha":694,"x_min":0,"x_max":0,"o":""},"À":{"ha":800,"x_min":36,"x_max":761,"o":"m 760 63 q 760 39 761 53 q 754 14 758 25 q 718 -12 735 -3 q 685 -22 701 -22 q 653 -10 669 -22 q 624 29 638 1 l 543 233 l 242 233 l 154 14 q 82 -18 118 -18 q 36 40 36 -18 q 46 100 36 67 l 344 1093 q 401 1107 372 1107 q 458 1093 432 1107 l 760 63 m 518 379 l 407 760 l 396 760 l 276 379 l 518 379 m 272 1418 l 439 1163 l 372 1163 l 161 1418 l 272 1418 z "},"Ã":{"ha":800,"x_min":25,"x_max":790,"o":"m 760 63 q 760 39 761 53 q 754 14 758 25 q 718 -12 735 -3 q 685 -22 701 -22 q 653 -10 669 -22 q 624 29 638 1 l 543 233 l 242 233 l 154 14 q 82 -18 118 -18 q 36 40 36 -18 q 46 100 36 67 l 344 1093 q 401 1107 372 1107 q 458 1093 432 1107 l 760 63 m 518 379 l 407 760 l 396 760 l 276 379 l 518 379 m 33 1324 q 85 1374 43 1358 q 145 1395 126 1389 q 184 1406 164 1401 q 222 1410 204 1410 q 261 1406 232 1410 q 334 1365 290 1403 q 406 1313 378 1326 q 457 1288 435 1299 q 504 1276 479 1276 q 536 1282 510 1276 q 616 1331 563 1288 q 700 1379 669 1375 q 739 1383 731 1383 q 781 1369 771 1383 q 790 1346 790 1356 q 769 1310 790 1329 q 726 1274 747 1290 q 638 1213 683 1231 q 531 1194 592 1194 q 428 1203 468 1194 q 353 1229 388 1211 q 289 1278 318 1247 q 243 1313 260 1310 q 215 1315 226 1315 q 163 1301 194 1315 q 119 1284 131 1288 q 87 1265 108 1281 q 54 1250 65 1250 q 36 1259 47 1250 q 25 1285 25 1268 q 33 1324 25 1296 z "},"Õ":{"ha":828,"x_min":53,"x_max":818,"o":"m 410 1165 q 476 1152 444 1168 q 549 1101 507 1136 l 760 719 q 774 608 774 665 q 751 464 774 542 l 556 65 q 488 21 525 43 q 417 -1 451 -1 q 335 24 375 -1 q 265 89 294 49 l 82 461 q 65 581 65 522 q 82 700 65 638 l 261 1069 q 410 1165 343 1165 m 413 1007 q 372 979 388 997 q 286 821 325 897 q 214 663 247 744 l 199 586 l 228 483 q 303 335 265 406 q 396 168 340 264 q 432 157 418 157 l 464 176 q 548 336 504 249 q 626 504 592 424 l 643 578 l 626 660 l 450 993 q 431 1002 442 997 q 413 1007 421 1007 m 61 1344 q 113 1394 71 1379 q 173 1416 154 1410 q 212 1426 192 1422 q 250 1431 232 1431 q 289 1427 260 1431 q 362 1385 318 1424 q 434 1333 406 1347 q 485 1308 463 1319 q 532 1297 507 1297 q 564 1303 538 1297 q 644 1352 590 1308 q 728 1400 697 1396 q 767 1404 758 1404 q 808 1390 799 1404 q 818 1367 818 1376 q 797 1331 818 1350 q 754 1294 775 1311 q 665 1233 711 1251 q 558 1215 619 1215 q 456 1224 496 1215 q 381 1250 415 1232 q 317 1299 346 1268 q 271 1333 288 1331 q 243 1336 254 1336 q 190 1322 222 1336 q 147 1305 158 1308 q 115 1286 136 1301 q 82 1271 93 1271 q 64 1280 75 1271 q 53 1306 53 1289 q 61 1344 53 1317 z "},"Œ":{"ha":1389,"x_min":82,"x_max":1338,"o":"m 638 486 l 638 664 l 467 946 q 448 955 458 950 q 429 960 438 960 q 389 932 404 950 q 303 774 342 850 q 231 615 264 697 l 215 539 l 244 436 q 319 288 282 358 q 413 121 357 217 q 449 110 435 110 l 481 129 q 557 292 514 189 q 638 486 600 394 m 638 925 l 638 1103 l 1247 1103 q 1298 1076 1279 1103 q 1317 1014 1317 1050 q 1304 971 1317 988 q 1265 954 1292 954 l 778 954 l 778 604 l 985 604 q 1034 580 1015 601 q 1053 532 1053 558 q 1040 492 1053 510 q 1000 468 1026 474 l 778 468 l 778 117 l 1275 117 q 1320 87 1303 111 q 1338 35 1338 63 q 1324 -8 1338 10 q 1285 -28 1311 -25 l 638 -28 l 638 144 l 572 18 q 503 -12 542 3 q 433 -28 465 -28 q 347 -11 385 -28 q 282 42 310 6 l 99 414 q 82 533 82 475 q 99 653 82 590 l 278 1022 q 426 1118 360 1118 q 492 1105 461 1121 q 565 1054 524 1089 l 638 925 z "},"œ":{"ha":1389,"x_min":57,"x_max":1324,"o":"m 618 233 l 618 569 l 567 621 q 517 644 540 636 q 450 660 494 651 l 279 646 q 228 613 250 636 q 193 556 206 589 q 196 387 193 478 q 201 236 199 296 l 242 174 l 315 146 l 535 149 q 585 181 565 161 q 618 233 604 200 m 768 426 l 1172 426 l 1172 583 q 1042 646 1121 646 l 857 646 q 828 635 846 643 q 800 624 810 628 q 777 598 783 606 q 763 575 771 590 l 763 551 l 768 526 l 768 426 m 768 296 l 768 242 l 763 221 l 763 214 q 806 164 778 185 q 868 136 835 143 l 1278 136 q 1324 72 1324 117 q 1281 0 1324 28 l 808 0 q 678 85 731 24 q 535 0 617 26 l 285 0 l 214 19 q 115 106 156 54 q 57 222 74 157 l 57 603 q 115 694 79 654 q 201 774 150 735 l 263 800 q 372 801 299 800 q 483 803 446 803 q 540 797 511 803 q 606 779 568 790 l 689 719 l 696 710 q 754 753 722 735 q 822 786 786 772 l 1101 786 q 1142 774 1128 779 q 1185 757 1157 768 q 1292 660 1240 714 q 1308 612 1300 640 q 1321 561 1317 583 l 1321 339 q 1286 307 1301 318 q 1250 296 1271 296 l 768 296 z "},"–":{"ha":1411,"x_min":156,"x_max":1244,"o":"m 194 383 l 1200 383 q 1233 359 1221 378 q 1244 314 1244 340 q 1230 277 1244 293 q 1194 261 1215 261 l 189 261 q 156 322 156 283 q 194 383 156 364 z "},"—":{"ha":2067,"x_min":128,"x_max":1944,"o":"m 167 383 l 1900 383 q 1933 359 1921 378 q 1944 314 1944 340 q 1930 277 1944 293 q 1894 261 1915 261 l 161 261 q 128 322 128 283 q 167 383 128 364 z "},"“":{"ha":722,"x_min":-3,"x_max":690,"o":"m 150 1028 q 204 1042 178 1042 q 275 1004 251 1042 l 136 785 l 263 774 l 274 774 q 318 704 318 756 q 308 657 318 683 q 292 647 304 654 q 271 639 281 639 l 39 650 q 10 674 24 660 q -3 714 -3 689 l 136 988 q 141 1005 139 999 q 150 1028 143 1011 m 522 1028 q 576 1042 550 1042 q 647 1004 624 1042 l 508 785 l 635 774 l 646 774 q 690 704 690 756 q 681 657 690 683 q 665 647 676 654 q 643 639 653 639 l 411 650 q 383 674 396 660 q 369 714 369 689 l 508 988 q 513 1005 511 999 q 522 1028 515 1011 z "},"”":{"ha":767,"x_min":40,"x_max":733,"o":"m 733 975 l 594 701 q 590 687 593 697 q 581 661 588 676 q 526 647 553 647 q 456 685 479 647 l 594 904 l 468 915 l 457 915 q 413 985 413 933 q 422 1032 413 1006 q 438 1042 426 1035 q 460 1050 450 1050 l 692 1039 q 720 1015 707 1029 q 733 975 733 1000 m 361 975 l 222 701 q 218 687 221 697 q 208 661 215 676 q 154 647 181 647 q 83 685 107 647 l 222 904 l 96 915 l 85 915 q 40 985 40 933 q 50 1032 40 1006 q 66 1042 54 1035 q 88 1050 78 1050 l 319 1039 q 348 1015 335 1029 q 361 975 361 1000 z "},"‘":{"ha":356,"x_min":-3,"x_max":318,"o":"m 150 1028 q 204 1042 178 1042 q 275 1004 251 1042 l 136 785 l 263 774 l 274 774 q 318 704 318 756 q 308 657 318 683 q 292 647 304 654 q 271 639 281 639 l 39 650 q 10 674 24 660 q -3 714 -3 689 l 136 988 q 141 1005 139 999 q 150 1028 143 1011 z "},"’":{"ha":356,"x_min":24,"x_max":344,"o":"m 344 997 l 206 724 q 201 709 204 719 q 192 683 199 699 q 138 669 164 669 q 67 707 90 669 l 206 926 l 79 938 l 68 938 q 24 1007 24 956 q 33 1054 24 1028 q 49 1065 38 1057 q 71 1072 61 1072 l 303 1061 q 331 1037 318 1051 q 344 997 344 1022 z "},"÷":{"ha":819,"x_min":68,"x_max":682,"o":"m 464 576 q 432 532 464 547 l 289 532 q 265 550 274 538 q 251 582 257 563 l 251 664 q 294 711 264 696 l 425 711 q 444 698 433 708 q 464 675 456 688 l 464 576 m 458 85 q 426 40 458 56 l 283 40 q 260 58 268 46 q 246 90 251 71 l 246 172 q 289 219 258 204 l 419 219 q 439 206 428 217 q 458 183 450 196 l 458 85 m 638 458 q 671 437 660 457 q 682 390 682 417 q 669 341 682 363 q 632 319 656 319 l 122 319 q 82 341 96 322 q 68 385 68 360 q 76 423 68 404 q 92 450 83 442 q 181 458 100 458 q 322 460 261 458 q 501 460 428 460 q 638 458 575 460 z "},"◊":{"ha":828,"x_min":94,"x_max":706,"o":"m 706 561 l 411 6 l 94 561 l 406 1072 l 706 561 m 594 557 l 406 879 l 210 557 l 408 207 l 594 557 z "},"ÿ":{"ha":792,"x_min":82,"x_max":789,"o":"m 744 889 q 729 864 740 875 q 699 840 718 853 l 576 840 q 544 851 560 840 q 519 881 528 863 l 519 1060 q 543 1089 528 1079 q 582 1106 558 1099 l 685 1106 q 744 1051 724 1092 l 744 889 m 344 889 q 329 864 340 875 q 299 840 318 853 l 176 840 q 144 851 160 840 q 119 881 128 863 l 119 1060 q 143 1089 128 1079 q 182 1106 158 1099 l 285 1106 q 344 1051 324 1092 l 344 889 m 789 575 l 456 -312 l 432 -339 l 199 -339 q 151 -319 176 -335 q 138 -267 138 -287 q 146 -228 138 -249 q 193 -206 168 -210 l 356 -208 l 435 0 l 353 40 l 82 558 l 82 746 q 85 765 82 756 q 94 789 89 775 q 153 810 119 810 q 214 783 189 810 l 228 754 l 228 569 l 475 133 l 651 578 l 651 754 q 714 808 669 800 q 754 803 731 813 q 789 765 776 789 l 789 575 z "},"Ÿ":{"ha":783,"x_min":68,"x_max":760,"o":"m 718 1165 q 703 1140 714 1151 q 672 1117 692 1129 l 550 1117 q 517 1128 533 1117 q 493 1157 501 1139 l 493 1336 q 517 1365 501 1356 q 556 1382 532 1375 l 658 1382 q 718 1328 697 1368 l 718 1165 m 318 1158 q 303 1133 314 1144 q 272 1110 292 1122 l 150 1110 q 117 1121 133 1110 q 93 1150 101 1132 l 93 1329 q 117 1358 101 1349 q 156 1375 132 1368 l 258 1375 q 318 1321 297 1361 l 318 1158 m 760 851 l 469 510 l 469 25 q 406 -11 453 -11 q 357 1 378 -11 q 328 35 336 13 l 328 515 l 68 871 l 68 1061 q 131 1097 83 1097 q 199 1061 178 1097 l 199 914 l 404 651 l 418 654 l 624 914 l 624 1053 q 697 1089 653 1089 q 760 1058 735 1089 l 760 851 z "},"∕":{"ha":944,"x_min":136,"x_max":824,"o":"m 819 996 q 614 662 733 864 q 397 301 494 460 q 207 11 300 142 q 167 3 188 3 q 136 25 136 10 q 140 43 136 33 q 149 69 143 53 l 750 1056 q 769 1072 760 1065 q 790 1080 778 1078 q 806 1082 801 1082 q 824 1056 824 1082 q 822 1022 824 1044 q 819 996 819 999 z "},"¤":{"ha":803,"x_min":156,"x_max":689,"o":"m 535 353 l 532 481 l 494 532 q 470 544 481 540 q 436 551 460 547 l 350 544 q 326 527 338 540 q 307 497 314 514 q 308 418 307 458 q 311 338 310 378 l 332 308 l 407 272 l 478 296 q 535 353 521 313 m 267 567 l 156 672 l 206 711 l 322 589 l 411 622 l 500 583 l 633 717 l 689 683 l 567 567 l 600 494 l 600 350 l 556 272 l 661 167 l 617 128 l 511 228 l 406 194 l 311 233 l 217 133 l 172 172 l 272 272 q 255 291 264 279 q 239 331 246 303 l 239 493 l 267 567 z "},"‹":{"ha":667,"x_min":61,"x_max":633,"o":"m 624 139 q 633 90 633 113 q 621 39 633 63 q 560 46 592 35 l 85 275 q 61 343 61 304 q 75 403 61 375 l 521 722 q 560 731 546 731 q 594 718 578 728 q 614 686 607 706 q 613 660 614 672 q 606 638 611 649 l 225 378 l 204 356 l 221 331 l 624 139 z "},"›":{"ha":667,"x_min":71,"x_max":649,"o":"m 643 396 q 649 358 649 375 q 640 310 649 342 l 606 278 l 603 281 l 154 14 q 132 10 142 10 q 106 15 118 10 q 81 25 93 19 q 71 65 71 50 q 89 108 71 89 q 310 230 196 167 q 508 356 424 293 l 485 386 l 86 613 q 74 647 74 629 q 100 701 74 679 l 128 710 q 151 704 136 708 q 178 694 165 700 l 629 424 l 643 396 z "},"":{"ha":1017,"x_min":67,"x_max":967,"o":"m 408 660 l 356 660 l 356 57 q 325 6 347 28 q 271 -10 299 -10 q 247 -6 260 -10 q 231 22 238 8 q 219 49 224 36 l 219 660 l 119 660 q 67 725 67 676 q 74 760 67 739 l 97 786 l 219 786 l 219 928 q 289 1035 243 994 q 404 1093 335 1076 l 660 1093 q 688 1074 678 1085 q 703 1056 699 1064 q 711 1039 707 1047 q 667 953 711 983 l 410 953 l 367 925 l 356 900 l 356 786 l 529 786 l 706 785 q 731 770 725 774 q 749 754 736 767 l 749 142 l 917 142 q 965 97 947 129 q 967 81 967 92 q 919 6 967 28 l 431 6 q 390 68 390 26 q 431 142 390 113 l 592 142 l 592 654 l 418 654 l 408 660 z "},"":{"ha":1033,"x_min":67,"x_max":971,"o":"m 410 953 l 367 925 l 356 900 l 356 786 l 529 786 q 560 753 549 776 q 567 708 571 731 q 540 667 558 688 l 499 660 l 356 660 l 356 57 q 325 6 347 28 q 271 -10 299 -10 q 247 -6 260 -10 q 231 22 238 8 q 219 49 224 36 l 219 660 l 119 660 q 67 725 67 676 q 74 760 67 739 l 97 786 l 219 786 l 219 928 q 289 1035 243 994 q 404 1093 335 1076 l 660 1093 l 671 1088 l 749 1088 l 765 1060 l 776 1028 l 776 125 l 917 125 q 958 106 938 121 q 971 53 971 82 q 950 -6 971 18 l 907 -11 l 446 -11 q 410 21 421 4 q 406 46 407 38 q 404 61 404 54 q 421 114 404 89 q 442 121 426 117 q 464 125 458 125 l 625 125 l 625 951 l 446 951 l 410 953 z "},"‡":{"ha":1050,"x_min":183,"x_max":889,"o":"m 428 733 l 517 1033 l 567 1033 l 632 733 l 889 733 l 889 639 l 632 639 l 578 494 l 639 300 l 889 300 l 889 211 l 639 211 l 567 -144 l 506 -144 l 444 211 l 183 211 l 183 300 l 440 300 l 489 494 l 428 639 l 183 639 l 183 733 l 428 733 z "},"·":{"ha":543,"x_min":146,"x_max":371,"o":"m 371 499 q 356 474 367 485 q 325 450 344 463 l 203 450 q 170 461 186 450 q 146 490 154 472 l 146 669 q 169 699 154 689 q 208 715 185 708 l 311 715 q 371 661 350 701 l 371 499 z "},"‚":{"ha":356,"x_min":24,"x_max":344,"o":"m 344 86 l 206 -187 q 201 -202 204 -192 q 192 -228 199 -212 q 138 -242 164 -242 q 67 -204 90 -242 l 206 15 l 79 26 l 68 26 q 24 96 24 44 q 33 143 24 117 q 49 153 38 146 q 71 161 61 161 l 303 150 q 331 126 318 140 q 344 86 344 111 z "},"„":{"ha":767,"x_min":24,"x_max":717,"o":"m 717 103 l 578 -171 q 574 -185 576 -175 q 564 -211 571 -196 q 510 -225 536 -225 q 439 -187 463 -225 l 578 32 l 451 43 l 440 43 q 396 113 396 61 q 406 160 396 133 q 422 170 410 163 q 443 178 433 178 l 675 167 q 703 142 690 157 q 717 103 717 128 m 344 103 l 206 -171 q 201 -185 204 -175 q 192 -211 199 -196 q 138 -225 164 -225 q 67 -187 90 -225 l 206 32 l 79 43 l 68 43 q 24 113 24 61 q 33 160 24 133 q 49 170 38 163 q 71 178 61 178 l 303 167 q 331 142 318 157 q 344 103 344 128 z "},"‰":{"ha":1228,"x_min":57,"x_max":1126,"o":"m 353 885 q 318 860 340 865 l 119 860 q 88 883 100 872 q 76 911 76 893 l 76 1067 q 142 1115 86 1115 l 296 1115 q 322 1100 308 1107 q 353 1058 346 1083 l 353 885 m 779 919 l 160 136 q 128 129 142 129 q 82 144 104 129 q 65 174 72 160 q 57 203 58 189 l 643 947 q 710 989 669 989 q 722 988 718 988 q 763 963 746 981 q 779 919 779 944 m 754 32 q 714 0 742 8 l 504 0 l 489 32 l 489 217 q 546 256 511 256 l 711 256 q 738 238 726 251 q 754 208 750 225 l 754 32 m 1126 26 q 1086 -6 1114 3 l 876 -6 l 861 26 l 861 211 q 918 250 883 250 l 1083 250 q 1110 233 1099 246 q 1126 203 1122 219 l 1126 26 z "},"Â":{"ha":800,"x_min":36,"x_max":761,"o":"m 760 63 q 760 39 761 53 q 754 14 758 25 q 718 -12 735 -3 q 685 -22 701 -22 q 653 -10 669 -22 q 624 29 638 1 l 543 233 l 242 233 l 154 14 q 82 -18 118 -18 q 36 40 36 -18 q 46 100 36 67 l 344 1093 q 401 1107 372 1107 q 458 1093 432 1107 l 760 63 m 518 379 l 407 760 l 396 760 l 276 379 l 518 379 m 568 1094 q 543 1090 546 1088 l 408 1229 l 265 1090 q 224 1142 224 1097 q 246 1188 224 1169 q 268 1192 257 1189 l 411 1329 l 551 1192 q 577 1172 568 1186 q 586 1139 586 1157 q 568 1094 586 1113 z "},"Ê":{"ha":840,"x_min":82,"x_max":782,"o":"m 710 982 l 222 982 l 222 632 l 429 632 q 478 608 460 629 q 497 560 497 586 q 484 519 497 538 q 444 496 471 501 l 222 496 l 222 144 l 719 144 q 765 115 747 139 q 782 63 782 90 q 769 20 782 38 q 729 0 756 3 l 82 0 l 82 1110 l 692 1110 q 742 1087 724 1110 q 761 1033 761 1064 q 749 996 761 1010 q 710 982 736 982 m 575 1157 q 550 1153 553 1150 l 415 1292 l 272 1153 q 231 1204 231 1160 q 253 1250 231 1232 q 275 1254 264 1251 l 418 1392 l 558 1254 q 584 1234 575 1249 q 593 1201 593 1219 q 575 1157 593 1175 z "},"Á":{"ha":800,"x_min":36,"x_max":761,"o":"m 760 63 q 760 39 761 53 q 754 14 758 25 q 718 -12 735 -3 q 685 -22 701 -22 q 653 -10 669 -22 q 624 29 638 1 l 543 233 l 242 233 l 154 14 q 82 -18 118 -18 q 36 40 36 -18 q 46 100 36 67 l 344 1093 q 401 1107 372 1107 q 458 1093 432 1107 l 760 63 m 518 379 l 407 760 l 396 760 l 276 379 l 518 379 m 388 1167 l 543 1433 l 660 1433 l 443 1161 l 388 1167 z "},"Ë":{"ha":840,"x_min":82,"x_max":782,"o":"m 718 1221 q 703 1196 714 1207 q 672 1172 692 1185 l 550 1172 q 517 1183 533 1172 q 493 1213 501 1194 l 493 1392 q 517 1421 501 1411 q 556 1438 532 1431 l 658 1438 q 718 1383 697 1424 l 718 1221 m 318 1221 q 303 1196 314 1207 q 272 1172 292 1185 l 150 1172 q 117 1183 133 1172 q 93 1213 101 1194 l 93 1392 q 117 1421 101 1411 q 156 1438 132 1431 l 258 1438 q 318 1383 297 1424 l 318 1221 m 729 0 l 82 0 l 82 1131 l 692 1131 q 742 1104 724 1131 q 761 1042 761 1078 q 749 999 761 1015 q 710 982 736 982 l 222 982 l 222 632 l 429 632 q 478 608 460 629 q 497 560 497 586 q 484 519 497 538 q 444 496 471 501 l 222 496 l 222 144 l 719 144 q 765 115 747 139 q 782 63 782 90 q 769 20 782 38 q 729 0 756 3 z "},"È":{"ha":840,"x_min":82,"x_max":782,"o":"m 710 982 l 222 982 l 222 632 l 429 632 q 478 608 460 629 q 497 560 497 586 q 484 519 497 538 q 444 496 471 501 l 222 496 l 222 144 l 719 144 q 765 115 747 139 q 782 63 782 90 q 769 20 782 38 q 729 0 756 3 l 82 0 l 82 1110 l 692 1110 q 742 1087 724 1110 q 761 1033 761 1064 q 749 996 761 1010 q 710 982 736 982 m 258 1446 l 425 1190 l 358 1190 l 147 1446 l 258 1446 z "},"Í":{"ha":865,"x_min":65,"x_max":779,"o":"m 735 999 l 501 999 l 501 146 l 749 146 q 771 115 763 135 q 779 78 779 96 q 764 26 779 49 q 719 0 749 4 l 89 0 q 65 83 65 40 q 78 129 65 113 q 117 146 90 146 l 347 146 l 347 999 l 133 999 q 88 1022 103 1001 q 74 1071 74 1043 q 85 1115 74 1097 q 119 1133 97 1133 l 722 1133 q 772 1067 772 1122 q 735 999 772 1024 m 401 1201 l 557 1468 l 674 1468 l 457 1196 l 401 1201 z "},"Î":{"ha":865,"x_min":65,"x_max":779,"o":"m 735 985 l 501 985 l 501 132 l 749 132 q 771 101 763 121 q 779 64 779 82 q 764 13 779 35 q 719 -14 749 -10 l 89 -14 q 65 69 65 26 q 78 115 65 99 q 117 132 90 132 l 347 132 l 347 985 l 133 985 q 88 1008 103 988 q 74 1057 74 1029 q 85 1101 74 1083 q 119 1119 97 1119 l 722 1119 q 772 1053 772 1108 q 735 985 772 1010 m 589 1164 q 564 1160 567 1157 l 429 1299 l 286 1160 q 244 1211 244 1167 q 267 1257 244 1239 q 289 1261 278 1258 l 425 1440 l 572 1261 q 598 1241 589 1256 q 607 1208 607 1226 q 589 1164 607 1182 z "},"Ï":{"ha":865,"x_min":65,"x_max":779,"o":"m 732 1221 q 717 1196 728 1207 q 686 1172 706 1185 l 564 1172 q 531 1183 547 1172 q 507 1213 515 1194 l 507 1392 q 531 1421 515 1411 q 569 1438 546 1431 l 672 1438 q 732 1383 711 1424 l 732 1221 m 332 1221 q 317 1196 328 1207 q 286 1172 306 1185 l 164 1172 q 131 1183 147 1172 q 107 1213 115 1194 l 107 1392 q 131 1421 115 1411 q 169 1438 146 1431 l 272 1438 q 332 1383 311 1424 l 332 1221 m 749 139 q 771 108 763 128 q 779 71 779 89 q 764 19 779 42 q 719 -7 749 -3 l 89 -7 q 65 76 65 33 q 78 122 65 106 q 117 139 90 139 l 347 139 l 347 992 l 133 992 q 88 1015 103 994 q 74 1064 74 1036 q 85 1108 74 1090 q 119 1126 97 1126 l 722 1126 q 772 1060 772 1115 q 735 992 772 1017 l 501 992 l 501 139 l 749 139 z "},"Ì":{"ha":865,"x_min":65,"x_max":779,"o":"m 735 999 l 501 999 l 501 146 l 749 146 q 771 115 763 135 q 779 78 779 96 q 764 26 779 49 q 719 0 749 4 l 89 0 q 65 83 65 40 q 78 129 65 113 q 117 146 90 146 l 347 146 l 347 999 l 133 999 q 88 1022 103 1001 q 74 1071 74 1043 q 85 1115 74 1097 q 119 1133 97 1133 l 722 1133 q 772 1067 772 1122 q 735 999 772 1024 m 286 1453 l 453 1197 l 386 1197 l 175 1453 l 286 1453 z "},"Ó":{"ha":828,"x_min":65,"x_max":774,"o":"m 410 1165 q 476 1152 444 1168 q 549 1101 507 1136 l 760 719 q 774 608 774 665 q 751 464 774 542 l 556 65 q 488 21 525 43 q 417 -1 451 -1 q 335 24 375 -1 q 265 89 294 49 l 82 461 q 65 581 65 522 q 82 700 65 638 l 261 1069 q 410 1165 343 1165 m 413 1007 q 372 979 388 997 q 286 821 325 897 q 214 663 247 744 l 199 586 l 228 483 q 303 335 265 406 q 396 168 340 264 q 432 157 418 157 l 464 176 q 548 336 504 249 q 626 504 592 424 l 643 578 l 626 660 l 450 993 q 431 1002 442 997 q 413 1007 421 1007 m 408 1257 l 564 1524 l 681 1524 l 464 1251 l 408 1257 z "},"Ô":{"ha":828,"x_min":65,"x_max":774,"o":"m 410 1165 q 476 1152 444 1168 q 549 1101 507 1136 l 760 719 q 774 608 774 665 q 751 464 774 542 l 556 65 q 488 21 525 43 q 417 -1 451 -1 q 335 24 375 -1 q 265 89 294 49 l 82 461 q 65 581 65 522 q 82 700 65 638 l 261 1069 q 410 1165 343 1165 m 413 1007 q 372 979 388 997 q 286 821 325 897 q 214 663 247 744 l 199 586 l 228 483 q 303 335 265 406 q 396 168 340 264 q 432 157 418 157 l 464 176 q 548 336 504 249 q 626 504 592 424 l 643 578 l 626 660 l 450 993 q 431 1002 442 997 q 413 1007 421 1007 m 589 1150 q 564 1146 567 1143 l 429 1285 l 286 1146 q 244 1197 244 1153 q 267 1243 244 1225 q 289 1247 278 1244 l 432 1385 l 572 1247 q 598 1227 589 1242 q 607 1194 607 1213 q 589 1150 607 1168 z "},"Ò":{"ha":828,"x_min":65,"x_max":774,"o":"m 410 1165 q 476 1152 444 1168 q 549 1101 507 1136 l 760 719 q 774 608 774 665 q 751 464 774 542 l 556 65 q 488 21 525 43 q 417 -1 451 -1 q 335 24 375 -1 q 265 89 294 49 l 82 461 q 65 581 65 522 q 82 700 65 638 l 261 1069 q 410 1165 343 1165 m 413 1007 q 372 979 388 997 q 286 821 325 897 q 214 663 247 744 l 199 586 l 228 483 q 303 335 265 406 q 396 168 340 264 q 432 157 418 157 l 464 176 q 548 336 504 249 q 626 504 592 424 l 643 578 l 626 660 l 450 993 q 431 1002 442 997 q 413 1007 421 1007 m 265 1488 l 432 1232 l 365 1232 l 154 1488 l 265 1488 z "},"Ú":{"ha":789,"x_min":46,"x_max":757,"o":"m 757 176 q 615 3 731 47 l 206 3 q 110 51 149 13 q 46 151 72 89 l 46 1036 q 66 1088 46 1069 q 114 1107 86 1107 q 165 1089 143 1107 q 188 1039 188 1071 l 188 182 q 203 149 192 167 q 388 118 282 118 q 498 128 443 118 q 597 154 553 138 q 610 172 606 165 q 615 188 615 179 l 615 1050 q 634 1092 615 1078 q 682 1107 653 1107 q 734 1092 711 1107 q 757 1056 757 1078 l 757 176 m 388 1104 l 543 1371 l 660 1371 l 443 1099 l 388 1104 z "},"Û":{"ha":789,"x_min":46,"x_max":757,"o":"m 757 176 q 615 3 731 47 l 206 3 q 110 51 149 13 q 46 151 72 89 l 46 1036 q 66 1088 46 1069 q 114 1107 86 1107 q 165 1089 143 1107 q 188 1039 188 1071 l 188 182 q 203 149 192 167 q 388 118 282 118 q 498 128 443 118 q 597 154 553 138 q 610 172 606 165 q 615 188 615 179 l 615 1050 q 634 1092 615 1078 q 682 1107 653 1107 q 734 1092 711 1107 q 757 1056 757 1078 l 757 176 m 568 1122 q 543 1118 546 1115 l 408 1257 l 265 1118 q 224 1169 224 1125 q 246 1215 224 1197 q 268 1219 257 1217 l 411 1357 l 551 1219 q 577 1199 568 1214 q 586 1167 586 1185 q 568 1122 586 1140 z "},"Ù":{"ha":789,"x_min":46,"x_max":757,"o":"m 757 176 q 615 3 731 47 l 206 3 q 110 51 149 13 q 46 151 72 89 l 46 1036 q 66 1088 46 1069 q 114 1107 86 1107 q 165 1089 143 1107 q 188 1039 188 1071 l 188 182 q 203 149 192 167 q 388 118 282 118 q 498 128 443 118 q 597 154 553 138 q 610 172 606 165 q 615 188 615 179 l 615 1050 q 634 1092 615 1078 q 682 1107 653 1107 q 734 1092 711 1107 q 757 1056 757 1078 l 757 176 m 251 1376 l 418 1121 l 351 1121 l 140 1376 l 251 1376 z "},"ı":{"ha":746,"x_min":38,"x_max":633,"o":"m 632 92 q 633 75 633 86 q 586 0 633 22 l 97 0 q 57 63 57 21 q 97 136 57 107 l 258 136 l 258 649 l 85 649 q 64 662 74 654 q 40 683 54 669 q 38 713 38 700 q 44 750 38 732 q 63 779 50 768 l 372 779 q 397 765 392 768 q 415 749 403 761 l 415 136 l 583 136 q 632 92 614 124 z "},"ˆ":{"ha":706,"x_min":168,"x_max":531,"o":"m 513 844 q 488 840 490 838 l 353 979 l 210 840 q 168 892 168 847 q 190 938 168 919 q 213 942 201 939 l 356 1079 l 496 942 q 522 922 513 936 q 531 889 531 907 q 513 844 531 863 z "},"˜":{"ha":1050,"x_min":29,"x_max":985,"o":"m 39 722 q 103 786 51 768 q 194 817 156 804 q 275 831 233 831 q 294 829 283 831 q 332 825 306 828 q 412 776 358 822 q 494 717 465 729 q 569 678 540 692 q 628 664 597 664 q 674 671 646 664 q 767 733 701 678 q 868 792 833 788 q 922 799 903 796 q 972 781 958 799 q 985 750 985 764 q 958 706 985 729 q 906 661 931 682 q 796 583 851 606 q 661 561 740 561 q 533 573 586 561 q 438 606 479 585 q 360 667 396 628 q 302 709 324 706 q 267 713 281 713 q 199 694 239 713 q 144 672 160 676 q 103 649 129 668 q 64 631 76 631 q 42 642 56 631 q 29 675 29 653 q 33 700 29 686 q 39 722 38 714 z "},"¯":{"ha":906,"x_min":44,"x_max":839,"o":"m 83 878 l 794 878 q 827 853 815 872 q 839 808 839 835 q 824 772 839 788 q 789 756 810 756 l 78 756 q 44 817 44 778 q 83 878 44 858 z "},"˘":{"ha":572,"x_min":128,"x_max":483,"o":"m 483 901 q 440 822 474 858 q 361 769 406 785 l 281 769 l 201 779 q 156 826 174 797 q 128 892 138 856 l 194 893 l 215 853 l 285 844 l 361 846 q 407 897 394 858 l 483 901 z "},"˙":{"ha":543,"x_min":140,"x_max":365,"o":"m 365 865 q 350 840 361 851 q 319 817 339 829 l 197 817 q 165 828 181 817 q 140 857 149 839 l 140 1036 q 164 1065 149 1056 q 203 1082 179 1075 l 306 1082 q 365 1028 344 1068 l 365 865 z "},"˚":{"ha":833,"x_min":303,"x_max":499,"o":"m 499 904 q 476 863 493 879 q 435 838 460 846 l 365 838 l 346 843 q 303 899 313 863 l 303 1003 q 319 1028 308 1017 q 343 1050 329 1040 l 360 1057 q 390 1057 375 1057 q 421 1058 406 1057 q 454 1051 443 1056 l 476 1035 l 492 1015 l 499 982 l 499 904 m 453 913 l 453 989 l 439 1003 l 410 1013 l 367 1008 q 346 986 353 1003 q 346 949 346 967 q 349 907 346 931 l 358 892 l 376 885 l 431 885 q 453 913 449 894 z "},"¸":{"ha":4214,"x_min":192,"x_max":4022,"o":"m 1828 1031 q 1743 1013 1760 1031 q 1726 924 1726 994 l 1726 810 l 1819 810 l 1819 729 l 1726 729 l 1726 0 l 1633 0 l 1633 729 l 1540 729 l 1540 810 l 1633 810 l 1633 938 q 1681 1081 1633 1053 q 1828 1110 1729 1110 l 1828 1031 m 2868 0 l 2753 0 l 2465 544 l 2346 393 l 2346 0 l 2244 0 l 2244 1101 l 2346 1101 l 2346 553 l 2731 1101 l 2858 1101 l 2532 636 l 2868 0 m 819 310 q 724 63 819 153 q 500 -28 629 -28 q 282 63 372 -28 q 192 322 192 153 l 285 322 q 356 131 301 194 q 506 67 410 67 q 651 126 586 67 q 717 294 717 185 q 717 315 717 304 q 710 376 714 329 q 536 497 706 422 q 295 622 367 572 q 224 828 224 672 q 224 856 224 842 q 231 933 224 871 q 318 1053 239 996 q 503 1111 397 1111 q 706 1040 619 1111 q 793 844 793 969 l 692 844 q 626 983 692 928 q 478 1039 560 1039 q 365 994 410 1039 q 319 858 319 949 q 318 839 318 849 q 318 825 318 829 q 447 633 318 701 q 689 526 568 579 q 819 310 819 450 m 2129 0 q 2097 -12 2113 -7 q 2058 -17 2081 -17 q 1967 25 2004 -17 q 1931 172 1931 67 l 1931 729 l 1850 729 l 1850 810 l 1931 810 l 1931 1053 l 2022 1053 l 2022 810 l 2129 810 l 2129 729 l 2022 729 l 2022 150 q 2075 64 2022 64 q 2129 79 2100 64 l 2129 0 m 1453 508 q 1408 122 1453 274 q 1182 -31 1364 -31 q 988 97 1038 -31 q 939 486 939 224 q 987 706 939 593 q 1182 832 1035 818 q 1382 744 1311 832 q 1453 508 1453 657 m 3407 251 q 3341 38 3407 107 q 3178 -31 3275 -31 q 2977 97 3021 -31 q 2933 381 2933 224 q 2995 722 2933 622 q 3178 822 3057 822 q 3353 728 3293 822 q 3413 483 3413 633 q 3413 428 3413 456 q 3407 393 3408 404 l 3026 393 q 3052 160 3029 276 q 3178 44 3075 44 q 3285 102 3249 44 q 3321 229 3321 160 q 3319 251 3321 244 l 3407 251 m 4022 810 l 3765 -124 q 3698 -238 3750 -199 q 3564 -278 3646 -278 l 3546 -278 l 3514 -275 l 3514 -194 q 3554 -199 3535 -199 q 3657 -143 3615 -199 q 3699 -10 3699 -87 l 3488 810 l 3579 810 l 3757 150 l 3929 810 l 4022 810 m 3319 474 q 3280 682 3319 625 q 3178 739 3240 739 q 3065 678 3103 739 q 3026 474 3026 618 l 3319 474 m 1368 403 q 1331 661 1368 571 q 1182 751 1294 751 q 1059 655 1094 751 q 1024 474 1024 558 q 1047 166 1024 288 q 1182 44 1071 44 q 1326 152 1285 44 q 1368 403 1368 260 z "},"ʺ":{"ha":661,"x_min":61,"x_max":561,"o":"m 61 778 l 217 1044 l 333 1044 l 117 772 l 61 778 m 289 772 l 444 1039 l 561 1039 l 344 767 l 289 772 z "},"˛":{"ha":644,"x_min":206,"x_max":526,"o":"m 517 121 q 526 72 526 94 q 516 31 526 49 q 482 4 506 13 l 471 4 l 344 -7 l 483 -226 q 413 -264 460 -264 q 358 -250 386 -264 q 349 -228 351 -235 q 344 -210 347 -222 l 206 64 q 217 99 206 85 q 247 128 228 114 l 479 139 q 496 135 488 139 q 517 121 504 131 z "},"ˇ":{"ha":706,"x_min":168,"x_max":531,"o":"m 513 1054 q 531 1010 531 1038 q 496 957 531 969 l 356 819 l 213 957 q 202 960 210 960 q 181 969 194 960 q 168 1007 168 978 q 210 1058 168 1051 l 353 919 l 488 1058 q 499 1060 492 1063 q 513 1054 506 1057 z "},"Ł":{"ha":922,"x_min":17,"x_max":853,"o":"m 789 154 q 835 126 818 150 q 853 74 853 101 q 835 22 853 43 q 786 0 818 0 l 138 0 l 138 442 l 17 394 l 17 539 l 138 586 l 138 1099 q 155 1125 138 1117 q 197 1136 172 1133 q 248 1130 222 1140 q 274 1099 274 1119 l 274 639 l 517 733 l 517 589 l 274 494 l 274 154 l 789 154 z "},"ł":{"ha":961,"x_min":100,"x_max":814,"o":"m 783 146 q 806 115 797 135 q 814 78 814 96 q 799 26 814 49 q 754 0 783 4 l 124 0 q 100 83 100 40 q 113 129 100 113 q 151 146 125 146 l 382 146 l 382 453 l 135 317 l 135 467 l 382 606 l 382 999 l 168 999 q 123 1022 138 1001 q 108 1071 108 1043 q 120 1115 108 1097 q 154 1133 132 1133 l 757 1133 q 807 1067 807 1122 q 769 999 807 1024 l 536 999 l 536 692 l 768 822 l 768 667 l 536 538 l 536 146 l 783 146 z "},"Š":{"ha":978,"x_min":90,"x_max":806,"o":"m 611 1364 q 629 1319 629 1347 q 594 1267 629 1279 l 454 1129 l 311 1267 q 301 1269 308 1269 q 280 1278 293 1269 q 267 1317 267 1288 q 308 1368 267 1361 l 451 1229 l 586 1368 q 597 1369 590 1372 q 611 1364 604 1367 m 797 115 q 733 36 775 68 q 643 4 692 4 q 618 7 635 4 l 242 7 q 133 72 175 21 q 90 189 90 122 q 92 213 90 204 q 149 269 108 254 q 196 260 171 269 q 231 187 215 217 q 268 140 246 157 l 640 140 q 657 146 646 140 l 657 169 l 119 858 q 99 947 99 903 q 126 1040 99 1000 q 208 1100 153 1081 l 624 1100 q 665 1094 642 1099 q 703 1086 689 1089 q 777 1015 749 1060 q 806 921 806 971 q 792 856 806 888 q 766 839 776 843 q 743 835 756 835 q 717 840 729 835 q 694 853 706 846 l 632 964 l 258 964 q 242 954 249 961 q 244 921 239 943 l 768 269 q 803 164 803 225 q 801 138 803 153 q 797 115 799 124 z "},"š":{"ha":911,"x_min":60,"x_max":767,"o":"m 588 1076 q 606 1032 606 1060 q 571 979 606 992 l 431 842 l 288 979 q 277 982 285 982 q 256 991 269 982 q 243 1029 243 1000 q 285 1081 243 1074 l 428 942 l 563 1081 q 574 1082 567 1085 q 588 1076 581 1079 m 760 290 q 767 222 767 251 q 742 112 767 160 q 671 38 717 64 q 586 0 625 13 l 208 0 q 133 28 164 13 q 74 74 101 44 q 60 126 60 97 q 78 178 60 158 q 133 196 97 199 q 192 169 156 196 q 239 139 228 143 l 578 139 q 621 176 603 153 q 631 203 628 196 q 635 222 633 211 q 578 293 622 267 l 139 489 q 94 545 108 513 q 81 617 81 578 q 122 740 81 685 q 231 800 164 794 l 626 800 q 709 758 674 788 q 740 686 744 729 q 683 615 728 638 l 649 615 l 564 675 l 263 675 l 233 663 q 223 636 226 647 q 222 608 219 625 q 238 582 236 585 q 253 572 240 579 l 667 407 q 760 290 728 357 z "},"Ž":{"ha":917,"x_min":46,"x_max":775,"o":"m 611 1357 q 629 1313 629 1340 q 594 1260 629 1272 l 454 1122 l 311 1260 q 301 1263 308 1263 q 280 1272 293 1263 q 267 1310 267 1281 q 308 1361 267 1354 l 451 1222 l 586 1361 q 597 1363 590 1365 q 611 1357 604 1360 m 768 40 q 756 19 764 29 q 729 0 747 10 l 82 0 q 57 15 65 0 q 49 50 49 29 q 60 94 49 75 l 561 971 l 94 971 q 72 979 81 971 q 55 1006 64 988 q 46 1038 46 1024 q 54 1069 46 1053 q 73 1095 63 1086 q 100 1104 83 1104 l 738 1104 q 756 1094 749 1104 q 767 1072 763 1083 q 771 1047 771 1060 q 760 1010 771 1029 l 261 139 l 717 139 q 749 124 736 131 q 768 101 761 117 q 775 71 775 86 q 768 40 775 54 z "},"ſ":{"ha":944,"x_min":69,"x_max":799,"o":"m 631 1086 q 649 1042 649 1069 q 614 989 649 1001 l 474 851 l 331 989 q 320 992 328 992 q 299 1001 313 992 q 286 1039 286 1010 q 328 1090 286 1083 l 471 951 l 606 1090 q 617 1092 610 1094 q 631 1086 624 1089 m 768 146 q 799 85 799 124 q 754 7 799 33 l 146 7 q 126 10 133 7 q 105 22 118 13 q 85 40 92 31 q 71 64 79 50 q 69 88 69 72 q 72 119 69 103 q 79 151 75 135 l 586 658 l 586 679 l 569 688 l 179 688 q 111 729 136 692 q 108 749 108 743 q 127 802 108 778 q 176 829 146 826 l 717 829 q 732 826 722 829 q 751 821 742 824 q 789 735 789 792 q 768 658 789 692 l 288 175 l 279 156 l 299 146 l 768 146 z "},"¦":{"ha":394,"x_min":150,"x_max":263,"o":"m 151 461 q 169 488 153 478 q 206 497 185 497 q 246 487 229 497 q 263 457 263 476 l 263 49 q 210 6 257 6 q 153 31 176 6 q 151 126 151 65 q 150 208 150 186 q 150 352 150 293 q 151 461 150 411 m 151 1072 q 169 1099 153 1089 q 206 1108 185 1108 q 246 1098 229 1108 q 263 1068 263 1088 l 263 660 q 210 617 257 617 q 153 642 176 617 q 151 737 151 676 q 150 819 150 797 q 150 963 150 904 q 151 1072 150 1022 z "},"Ð":{"ha":894,"x_min":22,"x_max":836,"o":"m 813 458 l 613 94 q 576 43 596 63 q 534 15 557 24 q 488 3 511 6 q 444 -1 464 1 q 388 -4 425 -3 q 314 -6 350 -6 q 217 -4 258 -6 q 144 0 175 -3 q 112 21 124 0 q 100 69 100 42 q 109 111 100 94 q 136 128 118 128 l 242 128 l 242 517 l 22 517 l 22 628 l 242 628 l 242 988 l 125 988 q 97 1001 107 988 q 88 1036 88 1015 q 103 1090 88 1065 q 139 1115 118 1115 l 515 1115 q 542 1109 532 1115 q 574 1085 551 1103 q 608 1047 597 1068 l 806 654 q 836 544 836 596 q 831 502 836 525 q 813 458 825 479 m 686 572 l 663 647 q 581 819 632 733 q 481 976 529 906 q 408 990 439 990 q 385 988 401 990 l 385 628 l 506 628 l 506 517 l 385 517 l 385 128 q 414 126 394 126 q 492 146 458 126 q 588 315 538 222 q 667 501 639 408 l 686 572 z "},"ð":{"ha":1050,"x_min":38,"x_max":950,"o":"m 950 672 l 767 672 l 765 78 q 712 19 739 49 q 681 -10 685 -10 l 74 -10 q 38 56 38 8 l 38 463 q 92 492 56 492 l 606 492 l 606 672 l 300 672 l 300 811 l 506 811 l 289 961 l 250 983 q 233 1040 233 1017 q 242 1075 233 1056 q 336 1111 274 1111 q 399 1098 372 1111 q 438 1057 426 1085 l 756 811 l 950 811 l 950 672 m 606 144 l 606 343 q 583 367 596 363 l 190 367 q 176 357 178 361 l 176 158 q 194 136 181 144 q 225 131 207 128 l 578 131 q 606 144 585 131 z "},"Ý":{"ha":928,"x_min":110,"x_max":801,"o":"m 693 1311 l 476 1039 l 421 1044 l 576 1311 l 693 1311 m 801 851 l 511 510 l 511 25 q 447 -11 494 -11 q 399 1 419 -11 q 369 35 378 13 l 369 515 l 110 871 l 110 1061 q 172 1097 125 1097 q 240 1061 219 1097 l 240 914 l 446 651 l 460 654 l 665 914 l 665 1053 q 739 1089 694 1089 q 801 1058 776 1089 l 801 851 z "},"ý":{"ha":900,"x_min":82,"x_max":789,"o":"m 689 1072 l 472 800 l 417 806 l 572 1072 l 689 1072 m 789 575 l 456 -312 l 432 -339 l 199 -339 q 151 -319 176 -335 q 138 -267 138 -287 q 146 -228 138 -249 q 193 -206 168 -210 l 356 -208 l 435 0 l 353 40 l 82 558 l 82 746 q 85 765 82 756 q 94 789 89 775 q 153 810 119 810 q 214 783 189 810 l 228 754 l 228 569 l 475 133 l 651 578 l 651 754 q 714 808 669 800 q 754 803 731 813 q 789 765 776 789 l 789 575 z "},"Þ":{"ha":1167,"x_min":65,"x_max":1035,"o":"m 357 943 l 847 943 q 956 908 910 943 q 1035 813 1003 874 l 1035 403 q 979 310 1021 346 q 878 265 938 274 l 394 265 l 357 943 m 501 801 l 501 403 l 829 403 q 875 411 854 403 l 897 436 l 897 764 q 863 792 883 783 q 815 801 842 801 l 501 801 m 501 146 l 749 146 q 771 115 763 135 q 779 78 779 96 q 764 26 779 49 q 719 0 749 4 l 89 0 q 65 83 65 40 q 78 129 65 113 q 117 146 90 146 l 347 146 l 347 999 l 133 999 q 88 1022 103 1001 q 74 1071 74 1043 q 85 1115 74 1097 q 119 1133 97 1133 l 722 1133 q 772 1067 772 1122 q 735 999 772 1024 l 501 999 l 501 801 l 500 403 l 501 146 z "},"þ":{"ha":1183,"x_min":36,"x_max":1060,"o":"m 918 546 l 896 772 q 792 858 838 822 q 703 901 747 894 q 657 893 678 901 l 611 875 l 483 736 l 469 713 l 478 497 l 649 332 l 690 315 l 768 332 l 779 343 l 907 463 l 918 546 m 483 -1 l 103 0 q 56 65 56 22 q 63 103 56 86 q 89 144 71 121 l 328 144 l 328 968 l 60 968 q 36 1021 36 990 q 55 1073 36 1050 q 106 1101 74 1096 l 442 1101 q 453 1044 451 1101 q 456 929 454 988 l 611 1038 q 711 1046 661 1046 q 736 1046 724 1046 q 760 1043 753 1043 q 887 960 826 1007 q 1010 853 947 914 q 1050 735 1040 799 q 1060 590 1060 672 q 1059 540 1060 565 q 1058 490 1058 515 l 1058 476 l 1024 381 q 928 287 978 335 q 831 194 879 239 q 771 174 800 179 q 706 168 742 168 q 670 169 682 168 q 628 175 658 171 l 483 260 l 483 -1 z "},"−":{"ha":678,"x_min":51,"x_max":543,"o":"m 507 368 q 533 351 524 367 q 543 314 543 335 q 533 274 543 290 q 503 257 522 257 l 94 257 q 51 310 51 263 q 76 367 51 343 q 172 369 111 368 q 254 369 232 369 q 398 369 339 369 q 507 368 457 369 z "},"×":{"ha":722,"x_min":101,"x_max":561,"o":"m 329 424 l 461 551 q 483 558 469 558 q 526 537 506 558 q 546 493 546 515 q 536 469 546 479 l 408 344 l 550 200 q 561 171 561 185 q 538 128 561 146 q 485 110 515 110 q 433 160 482 111 q 329 265 385 210 l 192 131 q 163 119 176 119 q 119 142 138 119 q 101 196 101 165 q 151 247 103 199 q 250 346 199 294 l 129 469 q 122 492 122 478 q 144 534 122 514 q 188 554 165 554 q 211 544 201 554 l 329 424 z "},"¹":{"ha":522,"x_min":36,"x_max":406,"o":"m 406 542 l 69 542 q 47 575 47 553 q 63 614 47 594 l 182 614 l 182 1026 l 49 1026 q 36 1053 36 1038 q 71 1093 36 1086 l 239 1093 q 260 1082 249 1093 l 260 617 l 336 617 l 336 776 q 353 792 344 790 q 386 794 363 794 l 406 772 l 406 542 z "},"²":{"ha":511,"x_min":31,"x_max":399,"o":"m 392 583 l 389 561 l 364 547 q 338 546 363 546 q 294 546 314 546 q 166 547 235 546 q 39 549 97 547 l 39 808 q 60 849 46 832 q 115 867 85 863 l 317 867 l 317 1032 l 49 1032 l 35 1047 q 31 1065 31 1056 q 76 1103 31 1103 l 335 1103 q 369 1078 357 1092 q 389 1044 382 1065 l 389 850 q 356 808 379 822 q 303 793 333 793 l 113 793 l 113 622 l 375 622 q 392 583 399 604 z "},"³":{"ha":494,"x_min":32,"x_max":399,"o":"m 399 611 q 369 575 386 589 q 331 558 353 561 l 64 558 l 49 568 q 44 588 44 579 q 68 625 44 610 l 89 628 l 325 628 l 325 772 l 299 799 l 124 799 q 117 815 121 804 q 113 839 114 826 q 140 867 119 863 l 296 867 l 317 892 l 317 1038 l 57 1038 q 39 1044 49 1038 q 32 1068 32 1053 q 41 1097 32 1085 q 67 1108 50 1108 l 332 1108 q 365 1088 351 1100 q 393 1056 378 1076 l 393 918 l 363 842 l 399 782 l 399 611 z "},"½":{"ha":1161,"x_min":36,"x_max":1071,"o":"m 406 542 l 69 542 q 47 575 47 553 q 63 614 47 594 l 182 614 l 182 1026 l 49 1026 q 36 1053 36 1038 q 71 1093 36 1086 l 239 1093 q 260 1082 249 1093 l 260 617 l 336 617 l 336 776 q 353 792 344 790 q 386 794 363 794 l 406 772 l 406 542 m 908 1018 q 708 699 815 881 q 497 342 601 518 q 290 22 393 167 q 250 14 271 14 q 219 36 219 21 q 223 54 219 44 q 232 81 226 64 l 833 1067 q 852 1083 843 1076 q 874 1091 861 1089 q 892 1093 888 1093 q 911 1067 911 1093 q 910 1046 911 1063 q 908 1018 908 1029 m 1064 72 l 1061 50 l 1036 36 q 1010 35 1035 35 q 967 35 986 35 q 838 35 907 35 q 711 38 769 36 l 711 297 q 732 338 718 321 q 788 356 757 351 l 989 356 l 989 521 l 721 521 l 707 536 q 703 554 703 544 q 749 592 703 592 l 1007 592 q 1042 567 1029 581 q 1061 533 1054 554 l 1061 339 q 1028 297 1051 311 q 975 282 1006 282 l 785 282 l 785 111 l 1047 111 q 1064 72 1071 93 z "},"¼":{"ha":1078,"x_min":36,"x_max":944,"o":"m 406 542 l 69 542 q 47 575 47 553 q 63 614 47 594 l 182 614 l 182 1026 l 49 1026 q 36 1053 36 1038 q 71 1093 36 1086 l 239 1093 q 260 1082 249 1093 l 260 617 l 336 617 l 336 776 q 353 792 344 790 q 386 794 363 794 l 406 772 l 406 542 m 847 1007 q 655 688 761 874 q 448 330 549 503 q 240 6 347 157 q 200 -3 221 -3 q 176 3 185 0 q 167 13 167 7 q 176 47 172 28 l 783 1050 q 801 1074 792 1063 q 824 1085 811 1085 q 852 1077 835 1085 q 869 1063 869 1069 q 858 1043 869 1060 q 847 1007 847 1026 m 943 247 q 944 231 944 242 q 940 203 944 218 l 922 192 l 908 192 l 908 33 l 896 19 q 878 17 885 17 q 840 35 857 17 l 840 192 l 629 192 l 629 531 l 629 550 q 651 557 639 557 l 674 554 q 689 539 686 547 l 689 260 l 840 260 l 840 478 q 854 497 844 488 l 871 500 l 888 500 q 906 478 901 490 l 906 260 l 929 260 l 943 247 z "},"¾":{"ha":1072,"x_min":25,"x_max":956,"o":"m 392 611 q 363 575 379 589 q 324 558 346 561 l 57 558 l 42 568 q 38 588 38 579 q 61 625 38 610 l 82 628 l 318 628 l 318 772 l 292 799 l 117 799 q 110 815 114 804 q 106 839 107 826 q 133 867 113 863 l 289 867 l 310 892 l 310 1038 l 50 1038 q 32 1044 42 1038 q 25 1068 25 1053 q 34 1097 25 1085 q 60 1108 43 1108 l 325 1108 q 358 1088 344 1100 q 386 1056 371 1076 l 386 918 l 356 842 l 392 782 l 392 611 m 819 996 q 614 662 733 864 q 397 301 494 460 q 207 11 300 142 q 167 3 188 3 q 136 25 136 10 q 140 43 136 33 q 149 69 143 53 l 750 1056 q 769 1072 760 1065 q 790 1080 778 1078 q 806 1082 801 1082 q 824 1056 824 1082 q 822 1022 824 1044 q 819 996 819 999 m 954 242 q 956 225 956 236 q 951 197 956 213 l 933 186 l 919 186 l 919 28 l 907 14 q 889 11 896 11 q 851 29 868 11 l 851 186 l 640 186 l 640 525 l 640 544 q 663 551 650 551 l 685 549 q 700 533 697 542 l 700 254 l 851 254 l 851 472 q 865 492 856 482 l 882 494 l 899 494 q 917 472 913 485 l 917 254 l 940 254 l 954 242 z "}}}
